<svg width="24" height="24" viewBox="0 0 24 24" fill="none" xmlns="http://www.w3.org/2000/svg">
<path fill-rule="evenodd" clip-rule="evenodd" d="M12 22C17.5228 22 22 17.5228 22 12C22 6.47715 17.5228 2 12 2C6.47715 2 2 6.47715 2 12C2 17.5228 6.47715 22 12 22ZM11.9999 5C12.5522 5 12.9999 5.44772 12.9999 6V11.382L16.4469 13.1055C16.9409 13.3525 17.1411 13.9532 16.8942 14.4472C16.6472 14.9412 16.0465 15.1414 15.5525 14.8944L11.5685 12.9024C11.5384 12.888 11.5091 12.8721 11.4808 12.8548C11.3091 12.7509 11.1786 12.6017 11.0971 12.4305C11.0673 12.3682 11.0438 12.3023 11.0274 12.2337C11.0067 12.1478 10.9973 12.059 10.9999 11.9697V6C10.9999 5.44772 11.4477 5 11.9999 5Z" fill="#31333C"/>
</svg>
