<svg width="24" height="24" viewBox="0 0 24 24" fill="none" xmlns="http://www.w3.org/2000/svg">
<circle cx="12" cy="12" r="10" fill="#31333C"/>
<path d="M11.8996 20C16.2509 20 19.8009 16.6455 19.9919 12.4371C20.0024 12.2065 19.9201 11.9824 19.7739 11.8037L18.934 10.7772C18.5473 10.3045 17.8309 10.2859 17.4201 10.7377L15.2904 13.0804C14.9119 13.4966 14.2647 13.5189 13.8585 13.1296L10.2097 9.63265C9.83596 9.27446 9.25063 9.26072 8.86049 9.60098L4.45259 13.4453C4.17405 13.6882 4.04714 14.0669 4.15842 14.4193C5.17897 17.6515 8.25879 20 11.8996 20Z" fill="white"/>
<circle cx="15" cy="7" r="2" fill="white"/>
</svg>
