<svg width="24" height="24" viewBox="0 0 24 24" fill="none" xmlns="http://www.w3.org/2000/svg">
<path fill-rule="evenodd" clip-rule="evenodd" d="M4.57052 17.8966L5.23209 15.6638C4.27487 15.1824 3.38467 14.5875 2.57947 13.8971C1.8835 13.3003 1.8031 12.2523 2.39988 11.5563C2.99665 10.8604 4.04463 10.78 4.74059 11.3768C5.19214 11.7639 5.67899 12.1108 6.19569 12.4117L8.45317 4.79269C9.1614 2.40242 12.5467 2.40245 13.255 4.79269L14.5858 9.28424C15.0233 7.70745 16.4691 6.55006 18.1852 6.55006C20.248 6.55006 21.9202 8.22227 21.9202 10.2851C21.9202 11.2908 21.5227 12.2037 20.8762 12.8752C20.6898 13.1165 20.3886 13.3458 20.0956 13.5689C19.9503 13.6796 19.8069 13.7887 19.6806 13.8971C18.7414 14.7024 17.6865 15.3778 16.5445 15.8948L17.1376 17.8966C17.4415 18.9221 16.8564 19.9998 15.8309 20.3037C14.8054 20.6075 13.7277 20.0225 13.4239 18.997L12.8178 16.9514C12.2651 17.0223 11.7018 17.0589 11.13 17.0589C10.3749 17.0589 9.63436 16.9951 8.91372 16.8726L8.28427 18.997C7.98041 20.0225 6.90273 20.6075 5.87721 20.3037C4.85169 19.9998 4.26667 18.9221 4.57052 17.8966ZM16.9711 9.82262C17.0308 9.23266 17.5487 8.79704 18.1402 8.83928C19.1376 8.91051 19.527 10.1704 18.7436 10.792L16.7098 12.4057L16.9711 9.82262ZM11.0142 6.91459C10.9797 6.76098 10.7608 6.76098 10.7263 6.91459L9.19311 13.743C9.19305 13.7433 9.19321 13.7435 9.19347 13.7436C10.2824 14.1029 11.458 14.1029 12.547 13.7436C12.5472 13.7435 12.5474 13.7433 12.5473 13.743L11.0142 6.91459Z" fill="#31333C"/>
</svg>
