<svg width="24" height="24" viewBox="0 0 24 24" fill="none" xmlns="http://www.w3.org/2000/svg">
<rect x="2" y="8" width="4" height="12" rx="1" fill="#31333C"/>
<path d="M8 9.70759C8 9.30831 8.3074 8.97635 8.7055 8.94573L19.6763 8.10182C20.4767 8.04025 21.2347 8.46944 21.5937 9.18747C23.0555 12.111 22.6479 15.6225 20.5554 18.1335L19.4972 19.4033C19.1729 19.7925 18.7413 20.0776 18.2561 20.2232L18.1592 20.2522C15.4696 21.0591 12.5837 20.9099 9.99169 19.8299L8.10991 19.0458C8.04336 19.0181 8 18.953 8 18.8809V9.70759Z" fill="#31333C"/>
<path d="M10.7134 4.88277C10.9661 3.83327 12.006 3.17365 13.0631 3.39236L14.4052 3.67004C15.3339 3.86219 16 4.68018 16 5.62856V10C16 11.1046 15.1046 12 14 12H11.5386C10.2447 12 9.29132 10.7899 9.59417 9.53189L10.7134 4.88277Z" fill="#31333C"/>
</svg>
