<svg width="24" height="24" viewBox="0 0 24 24" fill="none" xmlns="http://www.w3.org/2000/svg">
<path fill-rule="evenodd" clip-rule="evenodd" d="M19.5867 18.1725C19.6703 18.2562 19.8081 18.2494 19.881 18.1562C21.2087 16.459 22 14.3219 22 12C22 9.67806 21.2086 7.54096 19.8809 5.84369C19.808 5.7505 19.6703 5.74374 19.5866 5.8274L15.5558 9.85824C15.4912 9.92278 15.479 10.0226 15.5224 10.1029C15.8271 10.6674 16 11.3135 16 12C16 12.6865 15.8271 13.3325 15.5224 13.897C15.4791 13.9773 15.4913 14.0771 15.5558 14.1417L19.5867 18.1725ZM13.8968 8.47747C13.9772 8.52081 14.0769 8.50863 14.1415 8.44409L18.1724 4.41322C18.256 4.32955 18.2493 4.1918 18.1561 4.1189C16.4588 2.79129 14.3218 2 12 2C9.67809 2 7.54102 2.79134 5.84376 4.11904C5.75057 4.19194 5.74381 4.32969 5.82747 4.41335L9.85832 8.4442C9.92286 8.50874 10.0227 8.52092 10.103 8.47757C10.6675 8.17292 11.3135 8 12 8C12.6864 8 13.3324 8.17288 13.8968 8.47747ZM8.47751 10.1031C8.52086 10.0228 8.50867 9.92298 8.44413 9.85844L4.41327 5.82758C4.32961 5.74391 4.19186 5.75067 4.11896 5.84386C2.79131 7.54111 2 9.67814 2 12C2 14.3218 2.79129 16.4588 4.1189 18.1561C4.1918 18.2493 4.32955 18.256 4.41322 18.1724L8.44409 14.1415C8.50863 14.0769 8.52081 13.9772 8.47747 13.8968C8.17288 13.3324 8 12.6864 8 12C8 11.3136 8.17289 10.6676 8.47751 10.1031ZM14.1416 15.5559C14.077 15.4913 13.9772 15.4791 13.8969 15.5225C13.3324 15.8271 12.6864 16 12 16C11.3135 16 10.6674 15.8271 10.1029 15.5224C10.0226 15.479 9.92278 15.4912 9.85824 15.5558L5.8274 19.5866C5.74374 19.6703 5.7505 19.808 5.84369 19.8809C7.54096 21.2086 9.67806 22 12 22C14.3219 22 16.4589 21.2087 18.1561 19.881C18.2493 19.8081 18.2561 19.6704 18.1724 19.5867L14.1416 15.5559Z" fill="#31333C"/>
<path fill-rule="evenodd" clip-rule="evenodd" d="M8 2.5C4.96243 2.5 2.5 4.96243 2.5 8C2.5 9.77379 3.33914 11.3514 4.64415 12.3579L4.03341 13.1498C2.4935 11.962 1.5 10.0969 1.5 8C1.5 4.41015 4.41015 1.5 8 1.5C10.0398 1.5 11.8604 2.44019 13.0513 3.90894L12.2746 4.53875C11.2654 3.29411 9.72562 2.5 8 2.5Z" fill="#31333C"/>
<path fill-rule="evenodd" clip-rule="evenodd" d="M4.61017 11.6685C3.32459 12.6762 2.5 14.2417 2.5 16C2.5 19.0376 4.96243 21.5 8 21.5C9.83985 21.5 11.4688 20.5971 12.4681 19.208L13.2798 19.792C12.1008 21.4311 10.1752 22.5 8 22.5C4.41015 22.5 1.5 19.5899 1.5 16C1.5 13.9214 2.47627 12.0705 3.99329 10.8815L4.61017 11.6685Z" fill="#31333C"/>
<path fill-rule="evenodd" clip-rule="evenodd" d="M16.0001 2.5C14.1602 2.5 12.5313 3.4029 11.532 4.79198L10.7202 4.20802C11.8993 2.56896 13.8249 1.5 16.0001 1.5C19.5899 1.5 22.5001 4.41015 22.5001 8C22.5001 10.0625 21.5389 11.9007 20.0421 13.0907L19.4198 12.3079C20.6882 11.2995 21.5001 9.74471 21.5001 8C21.5001 4.96243 19.0376 2.5 16.0001 2.5Z" fill="#31333C"/>
<path fill-rule="evenodd" clip-rule="evenodd" d="M21.5002 16C21.5002 14.0874 20.5244 12.4025 19.0412 11.4164L19.5949 10.5836C21.345 11.7473 22.5002 13.7386 22.5002 16C22.5002 19.5898 19.5901 22.5 16.0002 22.5C13.5937 22.5 11.4932 21.1919 10.3701 19.2503L11.2357 18.7496C12.1875 20.3949 13.9651 21.5 16.0002 21.5C19.0378 21.5 21.5002 19.0376 21.5002 16Z" fill="#31333C"/>
</svg>
