<svg width="24" height="24" viewBox="0 0 24 24" fill="none" xmlns="http://www.w3.org/2000/svg">
<path fill-rule="evenodd" clip-rule="evenodd" d="M12.8395 3.29732C12.4455 2.68838 11.5545 2.68838 11.1605 3.29732L10.2783 4.66053C10.0211 5.05794 9.52052 5.22058 9.07887 5.05024L7.56389 4.46591C6.88716 4.2049 6.16637 4.72859 6.20549 5.45285L6.29306 7.07425C6.31859 7.54692 6.00922 7.97274 5.55179 8.09452L3.98269 8.51227C3.28178 8.69888 3.00646 9.54622 3.46382 10.1092L4.48771 11.3694C4.78619 11.7368 4.78619 12.2632 4.48771 12.6306L3.46383 13.8908C3.00646 14.4538 3.28178 15.3011 3.98269 15.4877L5.55179 15.9055C6.00922 16.0273 6.31859 16.4531 6.29306 16.9257L6.20549 18.5471C6.16637 19.2714 6.88716 19.7951 7.56389 19.5341L9.07887 18.9498C9.52052 18.7794 10.0211 18.9421 10.2783 19.3395L11.1605 20.7027C11.5545 21.3116 12.4455 21.3116 12.8395 20.7027L13.7217 19.3395C13.9789 18.9421 14.4795 18.7794 14.9211 18.9498L16.4361 19.5341C17.1128 19.7951 17.8336 19.2714 17.7945 18.5471L17.7069 16.9257C17.6814 16.4531 17.9908 16.0273 18.4482 15.9055L20.0173 15.4877C20.7182 15.3011 20.9935 14.4538 20.5362 13.8908L19.5123 12.6306C19.2138 12.2632 19.2138 11.7368 19.5123 11.3694L20.5362 10.1092C20.9935 9.54622 20.7182 8.69888 20.0173 8.51227L18.4482 8.09452C17.9908 7.97274 17.6814 7.54692 17.7069 7.07425L17.7945 5.45285C17.8336 4.72859 17.1128 4.2049 16.4361 4.46591L14.9211 5.05024C14.4795 5.22058 13.9789 5.05794 13.7217 4.66053L12.8395 3.29732ZM8.59851 15.4009C8.98903 15.7914 9.6222 15.7914 10.0127 15.4009L15.4003 10.0133C15.7908 9.62281 15.7908 8.98965 15.4003 8.59912C15.0098 8.2086 14.3766 8.2086 13.9861 8.59912L8.59851 13.9867C8.20798 14.3772 8.20798 15.0104 8.59851 15.4009ZM10.5856 9.17127C10.9762 9.5618 10.9762 10.195 10.5856 10.5855C10.1951 10.976 9.56194 10.976 9.17141 10.5855C8.78089 10.195 8.78089 9.5618 9.17141 9.17127C9.56194 8.78075 10.1951 8.78075 10.5856 9.17127ZM14.8283 14.8281C15.2188 14.4376 15.2188 13.8044 14.8283 13.4139C14.4378 13.0234 13.8046 13.0234 13.4141 13.4139C13.0236 13.8044 13.0236 14.4376 13.4141 14.8281C13.8046 15.2186 14.4378 15.2186 14.8283 14.8281Z" fill="#31333C"/>
</svg>
