<svg width="24" height="24" viewBox="0 0 24 24" fill="none" xmlns="http://www.w3.org/2000/svg">
<path d="M2 11L12 1.99906" stroke="#31333C" stroke-width="2" stroke-linecap="round"/>
<path d="M22 11L12 1.99906" stroke="#31333C" stroke-width="2" stroke-linecap="round"/>
<path fill-rule="evenodd" clip-rule="evenodd" d="M5.36598 6.80476C4.49792 7.56431 4 8.66161 4 9.81506V18C4 20.2091 5.79086 22 8 22H16C18.2091 22 20 20.2091 20 18V9.81506C20 8.66161 19.5021 7.56431 18.634 6.80476L14.634 3.30476C13.1259 1.98517 10.8741 1.98516 9.36598 3.30476L5.36598 6.80476ZM12 12C9.79086 12 8 13.7909 8 16V17.1724C8 17.6295 8.37052 18 8.82759 18H15.1724C15.6295 18 16 17.6295 16 17.1724V16C16 13.7909 14.2091 12 12 12Z" fill="#31333C"/>
</svg>
