<svg width="24" height="24" viewBox="0 0 24 24" fill="none" xmlns="http://www.w3.org/2000/svg">
<path fill-rule="evenodd" clip-rule="evenodd" d="M7.30635 3.11066C7.90367 3.10647 8.48286 3.31819 8.93623 3.70734C9.33423 4.04906 9.61159 4.50718 9.73115 5.01398L9.77314 5.23468L9.77412 5.24152C9.87576 6.01048 10.0641 6.76574 10.3356 7.49249L10.3913 7.65949C10.5085 8.05411 10.5256 8.47285 10.4392 8.87726C10.3404 9.33928 10.1106 9.7633 9.77803 10.0989L9.7751 10.1019L9.09541 10.7796C10.1385 12.4377 11.5441 13.8381 13.2058 14.8792L13.8864 14.2015L13.8894 14.1985C14.2256 13.8667 14.65 13.6378 15.112 13.5394C15.5732 13.4412 16.0532 13.4768 16.4948 13.6419C17.1327 13.8795 17.7938 14.0537 18.4655 14.1614L18.7536 14.2034L18.7604 14.2044C19.3608 14.289 19.9091 14.5909 20.3015 15.053C20.6898 15.5105 20.8977 16.0932 20.8874 16.6927L20.8884 19.2698L20.8757 19.5276C20.8499 19.7831 20.7838 20.0337 20.6804 20.2698C20.5423 20.585 20.3394 20.8685 20.0856 21.1009C19.8319 21.3331 19.5326 21.5104 19.2067 21.6204C18.8807 21.7304 18.5348 21.7714 18.1921 21.7405L18.1784 21.7386C15.4127 21.4386 12.7554 20.4966 10.4206 18.9866L10.0173 18.722C8.01748 17.3752 6.31509 15.6304 5.01924 13.595C3.50118 11.254 2.55556 8.58803 2.26045 5.81476L2.25947 5.80304C2.22854 5.4614 2.26995 5.11637 2.37959 4.79132C2.48928 4.46647 2.66579 4.16742 2.89717 3.91437C3.12864 3.66137 3.41055 3.45899 3.72432 3.32062C4.0381 3.1823 4.37749 3.11107 4.72041 3.11066H7.30635ZM4.6208 4.61554C4.52054 4.62613 4.42234 4.65289 4.32978 4.69367C4.20617 4.74821 4.09457 4.82761 4.00361 4.92706C3.91274 5.02652 3.84346 5.14443 3.80049 5.27179C3.75833 5.39706 3.7416 5.52985 3.75264 5.66144C4.00672 8.04163 4.78389 10.335 6.02607 12.3782L6.28096 12.7845L6.28486 12.7894C7.54868 14.7744 9.23525 16.4575 11.2243 17.7191L11.2302 17.723C13.3681 19.1067 15.8015 19.9707 18.3347 20.2464C18.4672 20.2573 18.6013 20.241 18.7272 20.1985C18.8554 20.1552 18.9733 20.0856 19.0729 19.9944C19.1727 19.9031 19.2522 19.7918 19.3063 19.6683C19.3604 19.5448 19.3888 19.4113 19.3884 19.2767V16.6741C19.3943 16.4367 19.312 16.2053 19.1579 16.0237C19.0038 15.8422 18.7882 15.7232 18.5515 15.6898C17.6705 15.5733 16.805 15.3583 15.9724 15.0482L15.9704 15.0472C15.7961 14.9819 15.6066 14.9674 15.4245 15.0062C15.2423 15.045 15.0752 15.1355 14.9431 15.2659L13.8513 16.3548C13.6128 16.5926 13.2449 16.6429 12.9519 16.4769C10.6772 15.1859 8.79332 13.3051 7.49971 11.0345C7.33259 10.7408 7.38275 10.3719 7.62178 10.1331L8.71553 9.04035C8.84464 8.90891 8.9339 8.74347 8.97236 8.56378C9.01102 8.38275 8.99659 8.19415 8.93135 8.02081V8.01886C8.62062 7.18771 8.40454 6.32411 8.28779 5.44464L8.27119 5.3587C8.22434 5.15989 8.11533 4.97949 7.95869 4.84503C7.77969 4.69153 7.55062 4.60834 7.31416 4.61066H4.72236L4.6208 4.61554Z" fill="black"/>
<path d="M13.4128 6.29718C13.492 5.89072 13.8862 5.62533 14.2927 5.70441C15.2804 5.89683 16.1882 6.37957 16.9001 7.09015C17.612 7.80071 18.0958 8.70701 18.2888 9.69367C18.3681 10.1 18.1033 10.495 17.697 10.5745C17.2906 10.6538 16.8966 10.3881 16.8171 9.98175C16.6816 9.28851 16.3412 8.65142 15.8405 8.15167C15.3398 7.6519 14.701 7.3125 14.0056 7.17706C13.5992 7.09785 13.3338 6.7036 13.4128 6.29718Z" fill="black"/>
<path d="M14.2312 2.25519C16.1486 2.46779 17.937 3.32478 19.3024 4.68585C20.6678 6.04692 21.5293 7.83093 21.7448 9.74542C21.791 10.1569 21.4952 10.5281 21.0837 10.5745C20.6723 10.6207 20.3011 10.3247 20.2546 9.91339C20.0772 8.33788 19.368 6.86914 18.2438 5.74835C17.1194 4.6275 15.6461 3.92061 14.0661 3.74542C13.6547 3.69961 13.3576 3.32875 13.403 2.9173C13.4488 2.50595 13.8198 2.20988 14.2312 2.25519Z" fill="black"/>
</svg>
