<svg width="24" height="24" viewBox="0 0 24 24" fill="none" xmlns="http://www.w3.org/2000/svg">
<path fill-rule="evenodd" clip-rule="evenodd" d="M12 8C11.6613 8 11.3283 8.02405 11.0024 8.07054C11.0008 8.04724 11 8.02372 11 8C11 7.44772 11.4477 7 12 7C12.5523 7 13 7.44772 13 8C13 8.02372 12.9992 8.04724 12.9976 8.07054C12.6717 8.02405 12.3387 8 12 8ZM10 8C10 8.0964 10.0068 8.1912 10.02 8.28396C7.11824 9.13808 5 11.8217 5 15C5 18.866 8.13401 22 12 22C15.866 22 19 18.866 19 15C19 11.8217 16.8818 9.13808 13.98 8.28396C13.9932 8.1912 14 8.0964 14 8C14 6.89543 13.1046 6 12 6C10.8954 6 10 6.89543 10 8ZM12 20C14.7614 20 17 17.7614 17 15C17 12.2386 14.7614 10 12 10C9.23858 10 7 12.2386 7 15C7 17.7614 9.23858 20 12 20Z" fill="#31333C"/>
<path d="M11.5247 12.4635C11.6744 12.0029 12.3261 12.0029 12.4758 12.4635L12.786 13.4184C12.853 13.6245 13.0449 13.7639 13.2616 13.7639H14.2656C14.75 13.7639 14.9514 14.3837 14.5595 14.6684L13.7472 15.2586C13.572 15.3859 13.4986 15.6116 13.5656 15.8176L13.8758 16.7725C14.0255 17.2332 13.4983 17.6163 13.1064 17.3316L12.2941 16.7414C12.1189 16.6141 11.8816 16.6141 11.7063 16.7414L10.894 17.3316C10.5022 17.6163 9.97494 17.2332 10.1246 16.7726L10.4349 15.8176C10.5018 15.6116 10.4285 15.3859 10.2533 15.2586L9.44095 14.6684C9.0491 14.3837 9.25048 13.7639 9.73485 13.7639H10.7389C10.9555 13.7639 11.1475 13.6245 11.2144 13.4184L11.5247 12.4635Z" fill="#31333C"/>
<path d="M10 3C10 2.44772 10.4477 2 11 2H13C13.5523 2 14 2.44772 14 3V6C14 6.55228 13.5523 7 13 7H11C10.4477 7 10 6.55228 10 6V3Z" fill="#31333C"/>
<path d="M15 3C15 2.44772 15.4477 2 16 2H18C18.5523 2 19 2.44772 19 3V4.66667C19 5.07037 18.7573 5.43447 18.3846 5.58974L16.3846 6.42308C15.7259 6.69753 15 6.21358 15 5.5V3Z" fill="#31333C"/>
<path d="M9 3C9 2.44772 8.55228 2 8 2H6C5.44772 2 5 2.44772 5 3V4.66667C5 5.07037 5.24274 5.43447 5.61538 5.58974L7.61539 6.42308C8.27407 6.69753 9 6.21358 9 5.5V3Z" fill="#31333C"/>
</svg>
