<svg width="24" height="24" viewBox="0 0 24 24" fill="none" xmlns="http://www.w3.org/2000/svg">
<path fill-rule="evenodd" clip-rule="evenodd" d="M12 22C16.1006 22 19.6248 19.5318 21.1679 16H15.6672C15.0499 19.5318 13.6403 22 12 22ZM8.33284 16C8.95008 19.5318 10.3597 22 12 22C7.89936 22 4.3752 19.5318 2.83209 16H8.33284ZM10.3667 16C10.5403 16.8885 10.7671 17.6747 11.0285 18.3283C11.3347 19.0937 11.6492 19.5788 11.8961 19.8399C11.9365 19.8826 11.9711 19.9155 12 19.9407C12.0289 19.9155 12.0635 19.8826 12.1039 19.8399C12.3508 19.5788 12.6653 19.0937 12.9715 18.3283C13.2329 17.6747 13.4597 16.8885 13.6333 16H10.3667ZM13.9128 14H10.0872C10.0306 13.3627 10 12.6936 10 12C10 11.3064 10.0306 10.6373 10.0872 10H13.9128C13.9694 10.6373 14 11.3064 14 12C14 12.6936 13.9694 13.3627 13.9128 14ZM15.92 14H21.8C21.9311 13.3538 22 12.6849 22 12C22 11.3151 21.9311 10.6462 21.8 10H15.92C15.9725 10.6462 16 11.3151 16 12C16 12.6849 15.9725 13.3538 15.92 14ZM15.6672 8H21.1679C19.6248 4.46819 16.1006 2 12 2C7.89936 2 4.3752 4.46819 2.83209 8H8.33283C8.95008 4.46819 10.3597 2 12 2C13.6403 2 15.0499 4.46819 15.6672 8ZM13.6333 8C13.4597 7.11152 13.2329 6.32531 12.9715 5.67171C12.6653 4.90634 12.3508 4.42118 12.1039 4.16007C12.0635 4.11741 12.0289 4.08451 12 4.05929C11.9711 4.08451 11.9365 4.11741 11.8961 4.16007C11.6492 4.42118 11.3347 4.90634 11.0285 5.67171C10.7671 6.32531 10.5403 7.11152 10.3667 8H13.6333ZM8.08001 10H2.20004C2.06886 10.6462 2 11.3151 2 12C2 12.6849 2.06886 13.3538 2.20004 14H8.08001C8.02754 13.3538 8 12.6849 8 12C8 11.3151 8.02754 10.6462 8.08001 10ZM11.8909 20.0178C11.8909 20.0175 11.8944 20.0157 11.9013 20.0133C11.8944 20.017 11.8909 20.0182 11.8909 20.0178ZM12.1091 20.0178C12.1091 20.0175 12.1056 20.0157 12.0987 20.0133C12.1019 20.015 12.1043 20.0161 12.106 20.0169C12.1081 20.0177 12.1091 20.018 12.1091 20.0178ZM12.1091 3.98216C12.1091 3.98248 12.1056 3.98431 12.0987 3.98668C12.1056 3.98303 12.1091 3.98184 12.1091 3.98216ZM11.9013 3.98668C11.8944 3.98431 11.8909 3.98248 11.8909 3.98216C11.8909 3.98184 11.8944 3.98303 11.9013 3.98668Z" fill="#31333C"/>
</svg>
