<svg width="24" height="24" viewBox="0 0 24 24" fill="none" xmlns="http://www.w3.org/2000/svg">
<path d="M4.75469 3.71716C4.89545 2.73186 5.73929 2 6.73459 2H17.2654C18.2607 2 19.1046 2.73186 19.2453 3.71716L20.6739 13.7172C20.846 14.922 19.9111 16 18.694 16H5.30602C4.08892 16 3.154 14.922 3.32612 13.7172L4.75469 3.71716Z" fill="#31333C"/>
<path fill-rule="evenodd" clip-rule="evenodd" d="M16.663 4.00001L14 4C13.4477 4 13 4.44771 13 5V13C13 13.5523 13.4477 14 14 14H20.7371C21.4837 14 21.967 13.2115 21.6282 12.5462L17.5541 4.54621C17.3834 4.21105 17.0391 4.00001 16.663 4.00001ZM14 3C12.8954 2.99999 12 3.89543 12 5V13C12 14.1046 12.8954 15 14 15H20.7371C22.2303 15 23.1969 13.423 22.5193 12.0924L18.4452 4.09241C18.1038 3.4221 17.4152 3.00002 16.663 3.00001L14 3Z" fill="#31333C"/>
<path fill-rule="evenodd" clip-rule="evenodd" d="M7.337 4.00001L10 4C10.5523 4 11 4.44771 11 5V13C11 13.5523 10.5523 14 10 14H3.26293C2.51632 14 2.03301 13.2115 2.37183 12.5462L6.4459 4.54621C6.61658 4.21105 6.96089 4.00001 7.337 4.00001ZM9.99999 3C11.1046 2.99999 12 3.89543 12 5V13C12 14.1046 11.1046 15 10 15H3.26293C1.76971 15 0.803098 13.423 1.48072 12.0924L5.5548 4.09241C5.89616 3.4221 6.58477 3.00002 7.337 3.00001L9.99999 3Z" fill="#31333C"/>
<rect x="2" y="17" width="20" height="3" rx="1.5" fill="#31333C"/>
<path d="M9.7639 13C9.5399 13 9.3399 12.932 9.1639 12.796C8.9879 12.652 8.8999 12.476 8.8999 12.268V5.33197C8.8999 5.12398 8.9679 4.95198 9.1039 4.81598C9.2479 4.67198 9.4239 4.59998 9.6319 4.59998H13.0879C13.5039 4.59998 13.8919 4.71198 14.2519 4.93598C14.6199 5.15198 14.9159 5.45598 15.1399 5.84798C15.3639 6.23198 15.4759 6.67598 15.4759 7.17998C15.4759 7.48398 15.4119 7.77998 15.2839 8.06798C15.1639 8.35598 14.9959 8.61598 14.7799 8.84798C14.5719 9.07998 14.3359 9.25998 14.0719 9.38798L14.0839 9.11198C14.3079 9.23198 14.4919 9.37598 14.6359 9.54398C14.7879 9.70398 14.9039 9.87998 14.9839 10.072C15.0719 10.256 15.1239 10.456 15.1399 10.672C15.1719 10.872 15.1919 11.048 15.1999 11.2C15.2159 11.352 15.2399 11.48 15.2719 11.584C15.3119 11.688 15.3839 11.768 15.4879 11.824C15.6639 11.928 15.7719 12.08 15.8119 12.28C15.8599 12.472 15.8159 12.644 15.6799 12.796C15.5919 12.9 15.4799 12.968 15.3439 13C15.2079 13.024 15.0719 13.024 14.9359 13C14.7999 12.968 14.6879 12.928 14.5999 12.88C14.4639 12.8 14.3279 12.684 14.1919 12.532C14.0559 12.372 13.9439 12.16 13.8559 11.896C13.7759 11.632 13.7359 11.292 13.7359 10.876C13.7359 10.74 13.7119 10.616 13.6639 10.504C13.6159 10.384 13.5479 10.284 13.4599 10.204C13.3719 10.116 13.2599 10.052 13.1239 10.012C12.9879 9.96398 12.8279 9.93998 12.6439 9.93998H10.2199L10.3999 9.66398V12.268C10.3999 12.476 10.3439 12.652 10.2319 12.796C10.1199 12.932 9.9639 13 9.7639 13ZM10.2319 8.70398H13.0279C13.1719 8.70398 13.3119 8.63998 13.4479 8.51198C13.5839 8.37598 13.6959 8.19598 13.7839 7.97198C13.8719 7.73998 13.9159 7.48798 13.9159 7.21598C13.9159 6.86398 13.8199 6.57198 13.6279 6.33998C13.4439 6.09998 13.2439 5.97998 13.0279 5.97998H10.2559L10.3999 5.59598V8.99198L10.2319 8.70398Z" fill="white"/>
<path d="M10 18C10 17.4477 10.4477 17 11 17H13C13.5523 17 14 17.4477 14 18V21C14 21.5523 13.5523 22 13 22H11C10.4477 22 10 21.5523 10 21V18Z" fill="#31333C"/>
</svg>
