<svg width="24" height="24" viewBox="0 0 24 24" fill="none" xmlns="http://www.w3.org/2000/svg">
<path fill-rule="evenodd" clip-rule="evenodd" d="M19.3571 2C19.7122 2 20 2.28782 20 2.64286V7V13V21C20 21.5523 19.5523 22 19 22C18.4477 22 18 21.5523 18 21V13H15.1786C14.5277 13 14 12.4723 14 11.8214V7.35714C14 4.39847 16.3985 2 19.3571 2Z" fill="#31333C"/>
<path fill-rule="evenodd" clip-rule="evenodd" d="M5 2C4.44772 2 4 2.44772 4 3V6V7V9C4 10.8638 5.27477 12.4299 7 12.874V21C7 21.5523 7.44772 22 8 22C8.55228 22 9 21.5523 9 21V12.874C10.7252 12.4299 12 10.8638 12 9V7V6V3C12 2.44772 11.5523 2 11 2C10.4477 2 10 2.44772 10 3V4.5V6V8.5C10 8.77614 9.77614 9 9.5 9C9.22386 9 9 8.77614 9 8.5V6V4.5V3C9 2.44772 8.55228 2 8 2C7.44772 2 7 2.44772 7 3V4.5V6V8.5C7 8.77614 6.77614 9 6.5 9C6.22386 9 6 8.77614 6 8.5V6V4.5V3C6 2.44772 5.55228 2 5 2Z" fill="#31333C"/>
</svg>
