<svg width="24" height="24" viewBox="0 0 24 24" fill="none" xmlns="http://www.w3.org/2000/svg">
<rect x="2" y="5" width="20" height="2" rx="1" fill="#31333C"/>
<path fill-rule="evenodd" clip-rule="evenodd" d="M4 7H20V18C20 20.2091 18.2091 22 16 22H8C5.79086 22 4 20.2091 4 18V7ZM9 11C9 10.4477 9.44772 10 10 10C10.5523 10 11 10.4477 11 11V17C11 17.5523 10.5523 18 10 18C9.44772 18 9 17.5523 9 17V11ZM14 10C13.4477 10 13 10.4477 13 11V17C13 17.5523 13.4477 18 14 18C14.5523 18 15 17.5523 15 17V11C15 10.4477 14.5523 10 14 10Z" fill="#31333C"/>
<path d="M9 3H15C15.5523 3 16 3.44772 16 4V8H8V4C8 3.44772 8.44772 3 9 3Z" stroke="#31333C" stroke-width="2"/>
</svg>
