<svg width="24" height="24" viewBox="0 0 24 24" fill="none" xmlns="http://www.w3.org/2000/svg">
<path fill-rule="evenodd" clip-rule="evenodd" d="M4.44137 3.90287C4.96357 3.03253 5.90413 2.5 6.91911 2.5H17C17.9222 2.5 18.7819 2.96652 19.2845 3.73977L21.2069 6.69735C21.3982 6.9916 21.5 7.33502 21.5 7.68597C21.5 8.68783 20.6878 9.5 19.686 9.5H19.5C18.3954 9.5 17.5 8.60457 17.5 7.5C17.5 7.22386 17.2761 7 17 7C16.7239 7 16.5 7.22386 16.5 7.5C16.5 8.60457 15.6046 9.5 14.5 9.5C13.3954 9.5 12.5 8.60457 12.5 7.5C12.5 7.22386 12.2761 7 12 7C11.7239 7 11.5 7.22386 11.5 7.5C11.5 8.60457 10.6046 9.5 9.5 9.5C8.39543 9.5 7.5 8.60457 7.5 7.5C7.5 7.22386 7.27614 7 7 7C6.72386 7 6.5 7.22386 6.5 7.5C6.5 8.60457 5.60457 9.5 4.5 9.5H4.34929C3.32795 9.5 2.5 8.67205 2.5 7.65071C2.5 7.31554 2.59109 6.98667 2.76354 6.69926L4.44137 3.90287Z" fill="#31333C"/>
<path fill-rule="evenodd" clip-rule="evenodd" d="M19.5 10.5C18.4565 10.5 17.5375 9.96722 17 9.15887C16.4625 9.96722 15.5435 10.5 14.5 10.5C13.4565 10.5 12.5375 9.96722 12 9.15887C11.4625 9.96722 10.5435 10.5 9.5 10.5C8.45651 10.5 7.53746 9.96723 7 9.15888C6.46254 9.96723 5.54349 10.5 4.5 10.5H4.34929C4.23104 10.5 4.11447 10.4928 4 10.4788V18C4 20.2091 5.79086 22 8 22H16C18.2091 22 20 20.2091 20 18V10.4827C19.8969 10.4941 19.7921 10.5 19.686 10.5H19.5ZM12 12C9.79086 12 8 13.7908 8 16V17.1724C8 17.6295 8.37052 18 8.82759 18H15.1724C15.6295 18 16 17.6295 16 17.1724V16C16 13.7908 14.2091 12 12 12Z" fill="#31333C"/>
</svg>
