<svg width="24" height="24" viewBox="0 0 24 24" fill="none" xmlns="http://www.w3.org/2000/svg">
<path d="M10.7208 2.92192C11.1234 1.69269 12.8766 1.69269 13.2792 2.92192L14.7178 7.31388C14.8979 7.8636 15.4143 8.2358 15.997 8.2358H20.6524C21.9554 8.2358 22.4971 9.88971 21.443 10.6494L17.6767 13.3638C17.2053 13.7035 17.008 14.3058 17.1881 14.8555L18.6267 19.2474C19.0293 20.4767 17.611 21.4988 16.5569 20.7391L12.7906 18.0248C12.3192 17.685 11.6808 17.685 11.2094 18.0248L7.44311 20.7391C6.389 21.4988 4.97069 20.4767 5.37333 19.2474L6.81193 14.8555C6.99199 14.3058 6.79473 13.7035 6.32332 13.3638L2.55702 10.6494C1.5029 9.88971 2.04465 8.2358 3.3476 8.2358H8.00301C8.58571 8.2358 9.10214 7.8636 9.28221 7.31388L10.7208 2.92192Z" fill="#31333C"/>
</svg>
