<svg width="24" height="24" viewBox="0 0 24 24" fill="none" xmlns="http://www.w3.org/2000/svg">
<path d="M9 18C9 17.4477 9.44772 17 10 17H18C18.5523 17 19 17.4477 19 18C19 18.5523 18.5523 19 18 19H10C9.44772 19 9 18.5523 9 18Z" fill="#31333C"/>
<path d="M9 15C9 14.4477 9.44772 14 10 14H18C18.5523 14 19 14.4477 19 15C19 15.5523 18.5523 16 18 16H10C9.44772 16 9 15.5523 9 15Z" fill="#31333C"/>
<path d="M9 21C9 20.4477 9.44772 20 10 20H18C18.5523 20 19 20.4477 19 21C19 21.5523 18.5523 22 18 22H10C9.44772 22 9 21.5523 9 21Z" fill="#31333C"/>
<path d="M9 14C9 13.4477 9.44772 13 10 13C10.5523 13 11 13.4477 11 14V22C11 22.5523 10.5523 23 10 23C9.44772 23 9 22.5523 9 22V14Z" fill="#31333C"/>
<path d="M9.00003 7.00189L14 2.00005" stroke="#31333C" stroke-width="2" stroke-linecap="round"/>
<path d="M19 7.00189L14 2.00005" stroke="#31333C" stroke-width="2" stroke-linecap="round"/>
<path d="M10 6.41421C10 6.149 10.1054 5.89464 10.2929 5.70711L13.2929 2.70711C13.6834 2.31658 14.3166 2.31658 14.7071 2.70711L17.7071 5.70711C17.8946 5.89464 18 6.149 18 6.41421V11C18 11.5523 17.5523 12 17 12H11C10.4477 12 10 11.5523 10 11V6.41421Z" fill="#31333C"/>
<path d="M12 9C12 7.89543 12.8954 7 14 7C15.1046 7 16 7.89543 16 9C16 10.1046 15.1046 11 14 11C12.8954 11 12 10.1046 12 9Z" fill="white"/>
<path d="M17 14C17 13.4477 17.4477 13 18 13C18.5523 13 19 13.4477 19 14V22C19 22.5523 18.5523 23 18 23C17.4477 23 17 22.5523 17 22V14Z" fill="#31333C"/>
<path d="M20 14C20 13.4477 20.4477 13 21 13C21.5523 13 22 13.4477 22 14V22C22 22.5523 21.5523 23 21 23C20.4477 23 20 22.5523 20 22V14Z" fill="#31333C"/>
<path d="M1.00003 21.8001C3.08886 21.6686 4.82114 20.1344 5.20409 18.0767L6.00003 13.8L7 13.8L7 21.8" stroke="#31333C" stroke-width="2" stroke-linecap="round" stroke-linejoin="round"/>
<circle cx="4" cy="5" r="2" fill="#31333C"/>
</svg>
