<svg width="18" height="18" viewBox="0 0 18 18" fill="none" xmlns="http://www.w3.org/2000/svg">
<path d="M9.6275 10.7518C9.78245 10.3127 10.0698 9.93241 10.4499 9.66343C10.8301 9.39445 11.2843 9.25 11.75 9.25C12.2157 9.25 12.6699 9.39445 13.0501 9.66343C13.4302 9.93241 13.7175 10.3127 13.8725 10.7518H17V12.2518H13.8725C13.7175 12.691 13.4302 13.0713 13.0501 13.3402C12.6699 13.6092 12.2157 13.7537 11.75 13.7537C11.2843 13.7537 10.8301 13.6092 10.4499 13.3402C10.0698 13.0713 9.78245 12.691 9.6275 12.2518H2V10.7518H9.6275ZM5.1275 5.50184C5.28245 5.06269 5.5698 4.68241 5.94995 4.41343C6.3301 4.14445 6.78432 4 7.25 4C7.71568 4 8.1699 4.14445 8.55005 4.41343C8.9302 4.68241 9.21755 5.06269 9.3725 5.50184H17V7.00184H9.3725C9.21755 7.44099 8.9302 7.82126 8.55005 8.09025C8.1699 8.35923 7.71568 8.50368 7.25 8.50368C6.78432 8.50368 6.3301 8.35923 5.94995 8.09025C5.5698 7.82126 5.28245 7.44099 5.1275 7.00184H2V5.50184H5.1275Z" fill="black"/>
</svg>
