<svg width="24" height="24" viewBox="0 0 24 24" fill="none" xmlns="http://www.w3.org/2000/svg">
<rect x="2" y="12" width="20" height="8" rx="2" fill="#31333C"/>
<path d="M5.63484 7.70149C5.7882 6.16788 7.0787 5 8.61995 5H15.38C16.9213 5 18.2118 6.16788 18.3652 7.70149L18.895 13H5.10499L5.63484 7.70149Z" stroke="#31333C" stroke-width="2"/>
<rect width="8" height="2" rx="1" transform="matrix(1 0 0 -1 8 17)" fill="white"/>
<rect width="2" height="2" rx="1" transform="matrix(1 0 0 -1 17 17)" fill="white"/>
<rect x="0.5" y="-0.5" width="4" height="4" rx="2" transform="matrix(1 0 0 -1 12 14)" stroke="#31333C"/>
<rect width="2" height="2" rx="1" transform="matrix(1 0 0 -1 5 17)" fill="white"/>
<circle cx="6" cy="20" r="2" fill="#31333C"/>
<circle cx="18" cy="20" r="2" fill="#31333C"/>
</svg>
