<svg width="24" height="24" viewBox="0 0 24 24" fill="none" xmlns="http://www.w3.org/2000/svg">
<rect x="4" y="2" width="16" height="20" rx="4" fill="#31333C"/>
<path d="M14.5 9.5C14.5 10.8807 13.3807 12 12 12C10.6193 12 9.5 10.8807 9.5 9.5C9.5 8.11929 10.6193 7 12 7C13.3807 7 14.5 8.11929 14.5 9.5Z" fill="white"/>
<path d="M8 16.2258C8 14.4442 9.44424 13 11.2258 13H12.7742C14.5558 13 16 14.4442 16 16.2258C16 16.6534 15.6534 17 15.2258 17H8.77419C8.34662 17 8 16.6534 8 16.2258Z" fill="white"/>
<rect x="2" y="6" width="4" height="2" rx="1" fill="#31333C"/>
<rect x="2" y="11" width="4" height="2" rx="1" fill="#31333C"/>
<rect x="2" y="16" width="4" height="2" rx="1" fill="#31333C"/>
</svg>
