<svg width="24" height="24" viewBox="0 0 24 24" fill="none" xmlns="http://www.w3.org/2000/svg">
<path d="M2 14.8431C2 10.5115 5.51149 7 9.84314 7H14.1569C18.4885 7 22 10.5115 22 14.8431C22 14.9298 21.9298 15 21.8431 15H2.15686C2.07023 15 2 14.9298 2 14.8431Z" fill="#31333C"/>
<path d="M7 20H17V21C17 21.5523 16.5523 22 16 22H8C7.44772 22 7 21.5523 7 21V20Z" fill="#31333C"/>
<path d="M2 16.0784C2 16.0351 2.03511 16 2.07843 16H21.9216C21.9649 16 22 16.0351 22 16.0784C22 18.2443 20.2443 20 18.0784 20H5.92157C3.75575 20 2 18.2443 2 16.0784Z" fill="#31333C"/>
<mask id="path-4-outside-1_631_10065" maskUnits="userSpaceOnUse" x="6.72265" y="1.14997" width="18.326" height="15.1031" fill="black">
<rect fill="white" x="6.72265" y="1.14997" width="18.326" height="15.1031"/>
<path fill-rule="evenodd" clip-rule="evenodd" d="M9.73976 12.0687C10.5612 13.753 12.6574 14.3598 14.2516 13.3748L17.6968 11.2461C18.605 10.6849 19.0822 9.67478 18.9982 8.66571L20.9637 7.70707C21.2058 8.20346 21.8044 8.40959 22.3008 8.16749C22.7972 7.92538 23.0034 7.32671 22.7612 6.83032C22.5191 6.33393 21.9205 6.12779 21.4241 6.3699C21.9205 6.12779 22.1266 5.52913 21.8845 5.03273C21.6424 4.53634 21.0437 4.33021 20.5473 4.57231C20.051 4.81442 19.8448 5.41309 20.0869 5.90948L18.1214 6.86812C17.378 6.18061 16.2882 5.93474 15.2869 6.30493L11.4883 7.70928C9.73063 8.35909 8.91828 10.3844 9.73976 12.0687Z"/>
</mask>
<path fill-rule="evenodd" clip-rule="evenodd" d="M9.73976 12.0687C10.5612 13.753 12.6574 14.3598 14.2516 13.3748L17.6968 11.2461C18.605 10.6849 19.0822 9.67478 18.9982 8.66571L20.9637 7.70707C21.2058 8.20346 21.8044 8.40959 22.3008 8.16749C22.7972 7.92538 23.0034 7.32671 22.7612 6.83032C22.5191 6.33393 21.9205 6.12779 21.4241 6.3699C21.9205 6.12779 22.1266 5.52913 21.8845 5.03273C21.6424 4.53634 21.0437 4.33021 20.5473 4.57231C20.051 4.81442 19.8448 5.41309 20.0869 5.90948L18.1214 6.86812C17.378 6.18061 16.2882 5.93474 15.2869 6.30493L11.4883 7.70928C9.73063 8.35909 8.91828 10.3844 9.73976 12.0687Z" fill="#31333C"/>
<path d="M14.2516 13.3748L14.7772 14.2255L14.2516 13.3748ZM17.6968 11.2461L17.1712 10.3954V10.3954L17.6968 11.2461ZM18.9982 8.66571L18.5598 7.76691L17.9448 8.06687L18.0016 8.74876L18.9982 8.66571ZM20.9637 7.70707L21.8625 7.26869L21.4241 6.3699L20.5253 6.80827L20.9637 7.70707ZM20.0869 5.90948L20.5253 6.80827L21.4241 6.3699L20.9857 5.47111L20.0869 5.90948ZM18.1214 6.86812L17.4424 7.60228L17.9448 8.06687L18.5598 7.76691L18.1214 6.86812ZM15.2869 6.30493L14.9401 5.36698L14.9401 5.36698L15.2869 6.30493ZM11.4883 7.70928L11.8351 8.64723L11.8351 8.64723L11.4883 7.70928ZM13.7259 12.5241C12.635 13.1981 11.2007 12.7829 10.6386 11.6304L8.84097 12.5071C9.9218 14.7231 12.6797 15.5215 14.7772 14.2255L13.7259 12.5241ZM17.1712 10.3954L13.7259 12.5241L14.7772 14.2255L18.2225 12.0968L17.1712 10.3954ZM18.0016 8.74876C18.0554 9.39403 17.7497 10.0379 17.1712 10.3954L18.2225 12.0968C19.4604 11.3319 20.1091 9.95553 19.9947 8.58266L18.0016 8.74876ZM20.5253 6.80827L18.5598 7.76691L19.4365 9.5645L21.402 8.60586L20.5253 6.80827ZM21.8625 7.26869L20.0649 8.14544C20.5491 9.13822 21.7464 9.55049 22.7392 9.06628L21.8625 7.26869ZM21.8625 7.26869L22.7392 9.06628C23.732 8.58207 24.1443 7.38473 23.66 6.39195L21.8625 7.26869ZM21.8625 7.26869L23.66 6.39195C23.1758 5.39917 21.9785 4.98689 20.9857 5.47111L21.8625 7.26869ZM20.9857 5.47111L21.8625 7.26869C22.8552 6.78448 23.2675 5.58714 22.7833 4.59436L20.9857 5.47111ZM20.9857 5.47111L22.7833 4.59436C22.2991 3.60158 21.1018 3.18931 20.109 3.67352L20.9857 5.47111ZM20.9857 5.47111L20.109 3.67352C19.1162 4.15773 18.7039 5.35507 19.1881 6.34785L20.9857 5.47111ZM18.5598 7.76691L20.5253 6.80827L19.6485 5.01068L17.683 5.96933L18.5598 7.76691ZM15.6337 7.24289C16.2715 7.00708 16.9671 7.16264 17.4424 7.60228L18.8004 6.13396C17.789 5.19858 16.305 4.8624 14.9401 5.36698L15.6337 7.24289ZM11.8351 8.64723L15.6337 7.24289L14.9401 5.36698L11.1415 6.77133L11.8351 8.64723ZM10.6386 11.6304C10.0764 10.4778 10.6323 9.09189 11.8351 8.64723L11.1415 6.77133C8.82896 7.62629 7.76014 10.2911 8.84097 12.5071L10.6386 11.6304Z" fill="white" mask="url(#path-4-outside-1_631_10065)"/>
<path d="M12.5 2L12.1202 2.25321C11.6457 2.56951 11.7206 3.28823 12.25 3.5C12.7794 3.71177 12.8543 4.43049 12.3798 4.74679L12 5" stroke="#31333C" stroke-linecap="round"/>
<path d="M9.5 2L9.12018 2.25321C8.64573 2.56951 8.72056 3.28823 9.25 3.5C9.77944 3.71177 9.85427 4.43049 9.37982 4.74679L9 5" stroke="#31333C" stroke-linecap="round"/>
<path d="M15.5 2L15.1202 2.25321C14.6457 2.56951 14.7206 3.28823 15.25 3.5C15.7794 3.71177 15.8543 4.43049 15.3798 4.74679L15 5" stroke="#31333C" stroke-linecap="round"/>
</svg>
