<svg width="55" height="94" viewBox="0 0 55 94" fill="none" xmlns="http://www.w3.org/2000/svg">
<g filter="url(#filter0_d_7825_23240)">
<path d="M89.297 38.7277L82.6567 32.0874C81.5209 30.9516 80.6035 28.7236 80.6035 27.1509V17.7147C80.6035 13.8703 77.4581 10.7249 73.6137 10.7249H64.2212C62.6485 10.7249 60.4205 9.80752 59.2847 8.67168L52.6444 2.0314C49.9359 -0.677134 45.4799 -0.677134 42.7713 2.0314L36.0437 8.67168C34.9516 9.80752 32.7236 10.7249 31.1072 10.7249H21.7147C17.8703 10.7249 14.7249 13.8703 14.7249 17.7147V27.1072C14.7249 28.6799 13.8075 30.9079 12.6717 32.0437L6.0314 38.684C3.32287 41.3925 3.32287 45.8485 6.0314 48.557L12.6717 55.1973C13.8075 56.3331 14.7249 58.5611 14.7249 60.1338V69.5263C14.7249 73.3707 17.8703 76.5161 21.7147 76.5161H31.1072C32.6799 76.5161 34.9079 77.4335 36.0437 78.5693L42.684 85.2096C45.3925 87.9182 49.8485 87.9182 52.557 85.2096L59.1973 78.5693C60.3331 77.4335 62.5611 76.5161 64.1338 76.5161H73.5263C77.3707 76.5161 80.5161 73.3707 80.5161 69.5263V60.1338C80.5161 58.5611 81.4335 56.3331 82.5693 55.1973L89.2096 48.557C92.0492 45.8922 92.0492 41.4362 89.297 38.7277ZM30.1898 30.5584C30.1898 28.1557 32.1557 26.1898 34.5584 26.1898C36.9611 26.1898 38.927 28.1557 38.927 30.5584C38.927 32.9611 37.0048 34.927 34.5584 34.927C32.1557 34.927 30.1898 32.9611 30.1898 30.5584ZM36.8738 59.0854C36.2185 59.7407 35.3884 60.0465 34.5584 60.0465C33.7284 60.0465 32.8983 59.7407 32.243 59.0854C30.9761 57.8185 30.9761 55.7215 32.243 54.4546L58.4546 28.243C59.7215 26.9761 61.8185 26.9761 63.0854 28.243C64.3523 29.5099 64.3523 31.6069 63.0854 32.8738L36.8738 59.0854ZM60.77 61.1386C58.3236 61.1386 56.3577 59.1727 56.3577 56.77C56.3577 54.3673 58.3236 52.4014 60.7263 52.4014C63.129 52.4014 65.0949 54.3673 65.0949 56.77C65.0949 59.1727 63.1727 61.1386 60.77 61.1386Z" fill="white" fill-opacity="0.25" shape-rendering="crispEdges"/>
</g>
<defs>
<filter id="filter0_d_7825_23240" x="0" y="0" width="95.3496" height="95.2422" filterUnits="userSpaceOnUse" color-interpolation-filters="sRGB">
<feFlood flood-opacity="0" result="BackgroundImageFix"/>
<feColorMatrix in="SourceAlpha" type="matrix" values="0 0 0 0 0 0 0 0 0 0 0 0 0 0 0 0 0 0 127 0" result="hardAlpha"/>
<feOffset dy="4"/>
<feGaussianBlur stdDeviation="2"/>
<feComposite in2="hardAlpha" operator="out"/>
<feColorMatrix type="matrix" values="0 0 0 0 0 0 0 0 0 0 0 0 0 0 0 0 0 0 0.25 0"/>
<feBlend mode="normal" in2="BackgroundImageFix" result="effect1_dropShadow_7825_23240"/>
<feBlend mode="normal" in="SourceGraphic" in2="effect1_dropShadow_7825_23240" result="shape"/>
</filter>
</defs>
</svg>
