<svg width="24" height="24" viewBox="0 0 24 24" fill="none" xmlns="http://www.w3.org/2000/svg">
<path d="M4.31804 6.31798C3.90017 6.73584 3.5687 7.23192 3.34255 7.77789C3.1164 8.32386 3 8.90903 3 9.49998C3 10.0909 3.1164 10.6761 3.34255 11.2221C3.5687 11.768 3.90017 12.2641 4.31804 12.682L12 20.364L19.682 12.682C20.526 11.8381 21.0001 10.6935 21.0001 9.49998C21.0001 8.3065 20.526 7.1619 19.682 6.31798C18.8381 5.47406 17.6935 4.99995 16.5 4.99995C15.3066 4.99995 14.162 5.47406 13.318 6.31798L12 7.63598L10.682 6.31798C10.2642 5.90011 9.7681 5.56864 9.22213 5.34249C8.67616 5.11634 8.09099 4.99994 7.50004 4.99994C6.90909 4.99994 6.32392 5.11634 5.77795 5.34249C5.23198 5.56864 4.7359 5.90011 4.31804 6.31798Z" stroke="black" stroke-width="2" stroke-linecap="round" stroke-linejoin="round"/>
</svg>
