<svg width="24" height="24" viewBox="0 0 24 24" fill="none" xmlns="http://www.w3.org/2000/svg">
<path fill-rule="evenodd" clip-rule="evenodd" d="M15.5 7C15.8133 7 16.1131 6.94237 16.3895 6.83712C16.7064 6.71645 16.9924 6.53317 17.2324 6.30241C17.3406 6.47296 17.4823 6.62018 17.6482 6.73484C17.8901 6.90206 18.1836 7 18.5 7C19.3284 7 20 6.32843 20 5.5C20 4.69178 19.3608 4.03286 18.5603 4.00119C18.5403 4.0004 18.5202 4 18.5 4C18.3126 4 18.1331 4.03438 17.9677 4.09719C17.9128 3.75845 17.7899 3.44253 17.6134 3.16391C17.1702 2.46439 16.3894 2 15.5 2C14.863 2 14.2816 2.23826 13.8401 2.63052C13.59 2.85281 13.3847 3.12457 13.2397 3.43045C13.006 3.24564 12.7301 3.11191 12.4288 3.04608C12.2907 3.0159 12.1472 3 12 3C11.7661 3 11.5417 3.04014 11.3331 3.1139C11.2643 3.02896 11.191 2.94786 11.1136 2.87095C10.5713 2.3326 9.82449 2 9 2C7.93879 2 7.00627 2.55101 6.47294 3.38254C6.32444 3.61407 6.20689 3.86734 6.12613 4.13653C6.00194 4.07941 5.86862 4.03875 5.72895 4.01736C5.6543 4.00593 5.57784 4 5.5 4C4.67157 4 4 4.67157 4 5.5C4 6.32843 4.67157 7 5.5 7C5.72682 7 5.94189 6.94965 6.13463 6.85953C6.26141 6.80024 6.37854 6.72374 6.483 6.63304C6.63515 6.86707 6.81906 7.07856 7.02861 7.26139C7.55582 7.72137 8.24537 8 9 8C9.94227 8 10.7831 7.56558 11.3331 6.8861C11.5417 6.95986 11.7661 7 12 7C12.3469 7 12.6732 6.91169 12.9575 6.75631C13.2244 6.6105 13.4544 6.40562 13.63 6.15925C13.8522 6.40951 14.1239 6.61485 14.4297 6.75995C14.7541 6.91388 15.117 7 15.5 7Z" fill="#31333C"/>
<path fill-rule="evenodd" clip-rule="evenodd" d="M6 7.94985V20C6 21.1046 6.89543 22 8 22H15C16.1046 22 17 21.1046 17 20V7.66293C16.5453 7.87891 16.0364 8.00002 15.5 8.00002C14.8321 8.00002 14.2075 7.81243 13.6766 7.48792C13.1983 7.81082 12.6213 8.00002 12 8.00002C11.8875 8.00002 11.7761 7.99378 11.6664 7.9816C10.9595 8.61403 10.0246 9.00002 9 9.00002C7.92657 9.00002 6.95233 8.57674 6.23471 7.89006C6.15797 7.91365 6.07966 7.93364 6 7.94985ZM9 11.5C9 11.2239 9.22386 11 9.5 11C9.77614 11 10 11.2239 10 11.5V16.5C10 16.7761 9.77614 17 9.5 17C9.22386 17 9 16.7761 9 16.5V11.5ZM11.5 11C11.2239 11 11 11.2239 11 11.5V16.5C11 16.7761 11.2239 17 11.5 17C11.7761 17 12 16.7761 12 16.5V11.5C12 11.2239 11.7761 11 11.5 11ZM13 11.5C13 11.2239 13.2239 11 13.5 11C13.7761 11 14 11.2239 14 11.5V16.5C14 16.7761 13.7761 17 13.5 17C13.2239 17 13 16.7761 13 16.5V11.5ZM7.5 20C7.22386 20 7 20.2239 7 20.5C7 20.7761 7.22386 21 7.5 21H15.5C15.7761 21 16 20.7761 16 20.5C16 20.2239 15.7761 20 15.5 20H7.5Z" fill="#31333C"/>
<path fill-rule="evenodd" clip-rule="evenodd" d="M14 10H18C19.6569 10 21 11.3431 21 13V15C21 16.6569 19.6569 18 18 18H14V10ZM16 12V16H18C18.5523 16 19 15.5523 19 15V13C19 12.4477 18.5523 12 18 12H16Z" fill="#31333C"/>
</svg>
