<svg width="24" height="24" viewBox="0 0 24 24" fill="none" xmlns="http://www.w3.org/2000/svg">
<path d="M11.8447 14.3619C15.5365 14.362 18.6895 16.4655 18.6895 18.7662C18.6893 21.0659 15.5564 21.6617 11.8447 21.6617C8.15296 21.6617 5.00008 21.0875 5 18.7867C5 16.486 8.13291 14.3619 11.8447 14.3619ZM11.8369 2.40002C14.2596 2.40002 16.2236 4.36499 16.2236 6.78772C16.2234 9.21025 14.2595 11.1735 11.8369 11.1735H11.8066C9.39224 11.1653 7.44224 9.20207 7.4502 6.78772C7.4502 4.3651 9.41434 2.40021 11.8369 2.40002Z" fill="#FEE0D2"/>
<path d="M11.8447 13.6119C13.8254 13.612 15.6808 14.1747 17.0605 15.0729C18.4197 15.9576 19.4395 17.2599 19.4395 18.7662C19.4394 19.5309 19.1712 20.1814 18.6914 20.6989C18.2276 21.199 17.5967 21.5431 16.9062 21.7848C15.5346 22.2647 13.7183 22.4117 11.8447 22.4117C9.98226 22.4117 8.16624 22.2704 6.79297 21.7965C6.10189 21.558 5.46906 21.2172 5.00293 20.7194C4.52027 20.2037 4.25002 19.5532 4.25 18.7867C4.25 17.2832 5.26137 15.9758 6.61914 15.0846C7.99697 14.1803 9.8531 13.6119 11.8447 13.6119ZM11.8447 15.1119C10.1246 15.1119 8.55788 15.6057 7.44141 16.3385C6.30508 17.0844 5.75 17.9895 5.75 18.7867C5.75002 19.1705 5.87392 19.4549 6.09766 19.694C6.33799 19.9507 6.72383 20.1858 7.28223 20.3785C8.40827 20.7671 10.0154 20.9117 11.8447 20.9117C13.6827 20.9117 15.2885 20.7617 16.4111 20.3688C16.9676 20.174 17.3522 19.9376 17.5918 19.6793C17.8153 19.4382 17.9394 19.1513 17.9395 18.7662C17.9395 17.9719 17.3823 17.0718 16.2422 16.3297C15.1227 15.601 13.5557 15.112 11.8447 15.1119ZM6.7002 6.78479C6.70155 3.94911 9.00096 1.65021 11.8369 1.65002C14.6741 1.65002 16.9736 3.95098 16.9736 6.78772C16.9734 9.62447 14.6737 11.9235 11.8369 11.9235H11.8037C9.06369 11.9141 6.83457 9.75553 6.70605 7.04944L6.7002 6.78772H7.4502L6.7002 6.78479ZM11.8369 3.15002C9.82855 3.15021 8.2002 4.77932 8.2002 6.78772V6.78967C8.19342 8.78965 9.80798 10.416 11.8076 10.4235H11.8359C13.8443 10.4235 15.4734 8.79604 15.4736 6.78772C15.4736 4.779 13.8452 3.15002 11.8369 3.15002Z" fill="#ED2124"/>
</svg>
