<svg width="26" height="27" viewBox="0 0 26 27" fill="none" xmlns="http://www.w3.org/2000/svg">
<path d="M7.61133 5.18301C7.47326 4.94387 7.55519 4.63807 7.79434 4.5C8.03349 4.36193 8.33928 4.44387 8.47735 4.68301L17.9774 21.1375C18.1154 21.3766 18.0335 21.6824 17.7943 21.8205C17.5552 21.9586 17.2494 21.8766 17.1113 21.6375L7.61133 5.18301Z" fill="#31333C"/>
<path d="M6.96791 8.06832C6.76346 7.7142 6.7952 7.27128 7.04806 6.94993L8.0471 5.68032C8.20589 5.47852 8.43622 5.34554 8.69037 5.30893L10.2894 5.07854C10.6941 5.02023 11.0936 5.2142 11.298 5.56832L11.9595 6.71404C12.2357 7.19234 12.0718 7.80393 11.5935 8.08007L10.2945 8.83007L8.99542 9.58007C8.51713 9.85621 7.90554 9.69234 7.62939 9.21404L6.96791 8.06832Z" fill="#31333C"/>
<path d="M9.46791 12.3985C9.26346 12.0444 9.2952 11.6015 9.54806 11.2801L10.5471 10.0105C10.7059 9.80872 10.9362 9.67574 11.1904 9.63913L12.7894 9.40874C13.1941 9.35043 13.5936 9.5444 13.798 9.89852L14.4595 11.0442C14.7357 11.5225 14.5718 12.1341 14.0935 12.4103L12.7945 13.1603L11.4954 13.9103C11.0171 14.1864 10.4055 14.0225 10.1294 13.5442L9.46791 12.3985Z" fill="#31333C"/>
<path d="M11.9679 16.7286C11.7635 16.3745 11.7952 15.9316 12.0481 15.6102L13.0471 14.3406C13.2059 14.1388 13.4362 14.0058 13.6904 13.9692L15.2894 13.7388C15.6941 13.6805 16.0936 13.8745 16.298 14.2286L16.9595 15.3743C17.2357 15.8526 17.0718 16.4642 16.5935 16.7403L15.2945 17.4903L13.9954 18.2403C13.5171 18.5165 12.9055 18.3526 12.6294 17.8743L11.9679 16.7286Z" fill="#31333C"/>
<path d="M13.2402 1.93301C13.1022 1.69387 13.1841 1.38807 13.4232 1.25C13.6624 1.11193 13.9682 1.19387 14.1063 1.43301L23.6063 17.8875C23.7443 18.1266 23.6624 18.4324 23.4232 18.5705C23.1841 18.7086 22.8783 18.6266 22.7402 18.3875L13.2402 1.93301Z" fill="#31333C"/>
<path d="M12.5968 4.81832C12.3924 4.4642 12.4241 4.02128 12.677 3.69993L13.676 2.43032C13.8348 2.22852 14.0651 2.09554 14.3193 2.05893L15.9183 1.82854C16.323 1.77023 16.7225 1.9642 16.9269 2.31832L17.5884 3.46404C17.8646 3.94234 17.7007 4.55393 17.2224 4.83007L15.9234 5.58007L14.6243 6.33007C14.146 6.60621 13.5344 6.44234 13.2583 5.96404L12.5968 4.81832Z" fill="#31333C"/>
<path d="M15.0968 9.14852C14.8924 8.7944 14.9241 8.35148 15.177 8.03013L16.176 6.76052C16.3348 6.55872 16.5651 6.42574 16.8193 6.38913L18.4183 6.15874C18.823 6.10043 19.2225 6.2944 19.4269 6.64852L20.0884 7.79424C20.3646 8.27254 20.2007 8.88413 19.7224 9.16027L18.4234 9.91027L17.1243 10.6603C16.646 10.9364 16.0344 10.7725 15.7583 10.2942L15.0968 9.14852Z" fill="#31333C"/>
<path d="M17.5968 13.4786C17.3924 13.1245 17.4241 12.6816 17.677 12.3602L18.676 11.0906C18.8348 10.8888 19.0651 10.7558 19.3193 10.7192L20.9183 10.4888C21.323 10.4305 21.7225 10.6245 21.9269 10.9786L22.5884 12.1243C22.8646 12.6026 22.7007 13.2142 22.2224 13.4903L20.9234 14.2403L19.6243 14.9903C19.146 15.2665 18.5344 15.1026 18.2583 14.6243L17.5968 13.4786Z" fill="#31333C"/>
<path d="M1.98193 8.43301C1.84386 8.19387 1.9258 7.88807 2.16495 7.75C2.40409 7.61193 2.70989 7.69387 2.84796 7.93301L12.348 24.3875C12.486 24.6266 12.4041 24.9324 12.1649 25.0705C11.9258 25.2086 11.62 25.1266 11.4819 24.8875L1.98193 8.43301Z" fill="#31333C"/>
<path d="M1.33852 11.3183C1.13406 10.9642 1.16581 10.5213 1.41867 10.1999L2.41771 8.93032C2.5765 8.72852 2.80682 8.59554 3.06098 8.55893L4.66001 8.32854C5.06474 8.27023 5.46419 8.4642 5.66864 8.81832L6.33013 9.96404C6.60627 10.4423 6.44239 11.0539 5.9641 11.3301L4.66506 12.0801L3.36603 12.8301C2.88773 13.1062 2.27614 12.9423 2 12.464L1.33852 11.3183Z" fill="#31333C"/>
<path d="M3.83852 15.6485C3.63406 15.2944 3.66581 14.8515 3.91867 14.5301L4.91771 13.2605C5.0765 13.0587 5.30682 12.9257 5.56098 12.8891L7.16001 12.6587C7.56474 12.6004 7.96419 12.7944 8.16864 13.1485L8.83013 14.2942C9.10627 14.7725 8.94239 15.3841 8.4641 15.6603L7.16506 16.4103L5.86603 17.1603C5.38773 17.4364 4.77614 17.2725 4.5 16.7942L3.83852 15.6485Z" fill="#31333C"/>
<path d="M6.33852 19.9786C6.13406 19.6245 6.16581 19.1816 6.41867 18.8602L7.41771 17.5906C7.5765 17.3888 7.80682 17.2558 8.06098 17.2192L9.66001 16.9888C10.0647 16.9305 10.4642 17.1245 10.6686 17.4786L11.3301 18.6243C11.6063 19.1026 11.4424 19.7142 10.9641 19.9903L9.66506 20.7403L8.36603 21.4903C7.88773 21.7665 7.27614 21.6026 7 21.1243L6.33852 19.9786Z" fill="#31333C"/>
</svg>
