<svg width="24" height="24" viewBox="0 0 24 24" fill="none" xmlns="http://www.w3.org/2000/svg">
<path d="M10.5932 3.80177C11.0764 2.49584 12.9235 2.49584 13.4067 3.80177L15.0017 8.11206C15.1536 8.52264 15.4773 8.84636 15.8879 8.99828L20.1982 10.5932C21.5041 11.0765 21.5041 12.9236 20.1982 13.4068L15.8879 15.0017C15.4773 15.1537 15.1536 15.4774 15.0017 15.888L13.4067 20.1983C12.9235 21.5042 11.0764 21.5042 10.5932 20.1983L8.99822 15.888C8.8463 15.4774 8.52258 15.1537 8.112 15.0017L3.80171 13.4068C2.49578 12.9236 2.49578 11.0765 3.80171 10.5932L8.112 8.99828C8.52258 8.84636 8.8463 8.52264 8.99822 8.11206L10.5932 3.80177Z" fill="#31333C"/>
<rect x="5" y="2" width="2" height="6" rx="1" fill="#31333C"/>
<rect x="4" y="16" width="2" height="6" rx="1" fill="#31333C"/>
<rect x="9" y="4" width="2" height="6" rx="1" transform="rotate(90 9 4)" fill="#31333C"/>
<rect x="8" y="18" width="2" height="6" rx="1" transform="rotate(90 8 18)" fill="#31333C"/>
</svg>
