<svg width="24" height="24" viewBox="0 0 24 24" fill="none" xmlns="http://www.w3.org/2000/svg">
<path d="M12.2962 8.32558C12.6106 8.0562 13.0843 8.09234 13.3538 8.40664L15.1214 10.4691C15.1301 10.4794 15.1367 10.4918 15.1448 10.5023C15.1598 10.5219 15.1747 10.5419 15.1878 10.5629C15.1981 10.5795 15.2063 10.5975 15.2151 10.6146C15.2275 10.6386 15.2405 10.6625 15.2503 10.6879C15.2585 10.7095 15.2636 10.7322 15.2698 10.7543C15.2762 10.7768 15.2841 10.7993 15.2884 10.8227C15.2891 10.8264 15.2897 10.8306 15.2903 10.8344C15.2969 10.8741 15.302 10.9149 15.3021 10.9564C15.302 10.9975 15.2967 11.0382 15.2903 11.0775C15.2895 11.0826 15.2893 11.0881 15.2884 11.0932C15.2844 11.1146 15.2765 11.1349 15.2708 11.1557C15.2644 11.1789 15.259 11.2024 15.2503 11.225C15.2405 11.2505 15.2275 11.2742 15.2151 11.2982C15.2062 11.3156 15.1981 11.3333 15.1878 11.35C15.1754 11.37 15.1619 11.3889 15.1478 11.4076C15.1385 11.4198 15.1315 11.4339 15.1214 11.4457L13.3538 13.5082C13.0844 13.8222 12.6106 13.858 12.2962 13.5893C11.9818 13.3197 11.9456 12.8461 12.2151 12.5316L12.9222 11.7064H10.3089C10.1734 11.7065 10.0148 11.7689 9.87822 11.9281C9.73872 12.0911 9.64493 12.3344 9.64482 12.6068V15.4935C9.64468 15.9075 9.30879 16.2434 8.89482 16.2435C8.4807 16.2435 8.14497 15.9076 8.14482 15.4935V12.6068C8.14493 12.0046 8.34895 11.4073 8.73955 10.9516C9.13327 10.4924 9.6945 10.2065 10.3089 10.2064H12.9202L12.2151 9.3832C11.9456 9.06876 11.9818 8.59517 12.2962 8.32558Z" fill="black"/>
<path fill-rule="evenodd" clip-rule="evenodd" d="M9.99053 2.01503C11.1682 0.951048 12.9864 0.986532 14.1214 2.12148L21.8792 9.87831L21.9856 9.99062C23.0149 11.1302 23.0149 12.8696 21.9856 14.0092L21.8792 14.1215L14.1214 21.8793L14.0091 21.9848C12.8694 23.0144 11.1302 23.0144 9.99053 21.9848L9.8792 21.8793L2.12139 14.1215C0.98642 12.9865 0.950896 11.1683 2.01494 9.99062L2.12139 9.87831L9.8792 2.12148L9.99053 2.01503ZM13.0608 3.18203C12.4751 2.59631 11.5255 2.59644 10.9397 3.18203L3.18193 10.9398C2.5964 11.5256 2.59623 12.4752 3.18193 13.0609L10.9397 20.8178C11.5255 21.4034 12.4751 21.4035 13.0608 20.8178L20.8187 13.0609C21.404 12.4753 21.4038 11.5256 20.8187 10.9398L13.0608 3.18203Z" fill="black"/>
</svg>
