<svg width="24" height="24" viewBox="0 0 24 24" fill="none" xmlns="http://www.w3.org/2000/svg">
<g clip-path="url(#clip0_4638_25681)">
<path fill-rule="evenodd" clip-rule="evenodd" d="M7.0715 7.9286C7.0715 7.28137 7.19898 6.64048 7.44666 6.04251C7.69435 5.44455 8.05738 4.90123 8.51504 4.44357C8.9727 3.98591 9.51603 3.62288 10.114 3.37519C10.7119 3.12751 11.3528 3.00003 12.0001 3.00003C12.6473 3.00003 13.2882 3.12751 13.8862 3.37519C14.4841 3.62288 15.0274 3.98591 15.4851 4.44357C15.9428 4.90123 16.3058 5.44455 16.5535 6.04251C16.8012 6.64048 16.9286 7.28137 16.9286 7.9286V18.2143C16.9286 19.0029 16.5429 19.6989 15.9481 20.1275C15.5161 19.6132 14.8681 19.2857 14.1429 19.2857H9.85721C9.23206 19.2857 8.63251 19.5341 8.19046 19.9761C7.74841 20.4182 7.50007 21.0177 7.50007 21.6429C7.50007 22.268 7.74841 22.8676 8.19046 23.3096C8.63251 23.7517 9.23206 24 9.85721 24H14.1429C15.2058 24 16.1058 23.2955 16.3989 22.3269C17.1938 21.9725 17.8691 21.3956 18.3434 20.6658C18.8176 19.936 19.0705 19.0846 19.0715 18.2143V16.5H21.0001C22.5395 16.5 23.7858 15.252 23.7858 13.7143V10.2857C23.7858 8.74803 22.5395 7.50003 21.0001 7.50003H19.9166C19.8051 5.47579 18.9225 3.57117 17.4501 2.17763C15.9777 0.784087 14.0274 0.00750732 12.0001 0.00750732C9.97277 0.00750732 8.02248 0.784087 6.55007 2.17763C5.07766 3.57117 4.19499 5.47579 4.0835 7.50003H3.00007C1.46236 7.50003 0.214355 8.74803 0.214355 10.2857V13.7143C0.214355 15.252 1.46236 16.5 3.00007 16.5H6.00007C6.5915 16.5 7.0715 16.02 7.0715 15.4286V7.9286ZM2.35721 10.2857C2.35721 9.93088 2.64521 9.64288 3.00007 9.64288H4.92864V14.3572H3.00007C2.82957 14.3572 2.66606 14.2894 2.5455 14.1689C2.42494 14.0483 2.35721 13.8848 2.35721 13.7143V10.2857ZM19.0715 14.3572V9.64288H21.0001C21.3549 9.64288 21.6429 9.93088 21.6429 10.2857V13.7143C21.6429 13.8848 21.5752 14.0483 21.4546 14.1689C21.3341 14.2894 21.1706 14.3572 21.0001 14.3572H19.0715Z" fill="black"/>
</g>
<defs>
<clipPath id="clip0_4638_25681">
<rect width="24" height="24" fill="white"/>
</clipPath>
</defs>
</svg>
