<svg width="24" height="24" viewBox="0 0 24 24" fill="none" xmlns="http://www.w3.org/2000/svg">
<path d="M15.6402 2.83979C16.461 2.10069 17.7256 2.16696 18.4647 2.98782L21.1412 5.9604C21.8803 6.78125 21.8141 8.04585 20.9932 8.78495L20.2501 9.45408L14.897 3.50892L15.6402 2.83979Z" fill="#31333C"/>
<path d="M4.71085 12.6808C5.00106 12.4195 5.44816 12.4429 5.70947 12.7331L10.1162 17.6273C10.3775 17.9175 10.3541 18.3646 10.0639 18.6259C9.92452 18.7514 9.74102 18.8164 9.55374 18.8066L5.19576 18.5782C4.64423 18.5493 4.22056 18.0788 4.24946 17.5272L4.47785 13.1693C4.48767 12.982 4.57148 12.8063 4.71085 12.6808Z" fill="#31333C"/>
<path d="M13.4107 4.84717C13.8211 4.47762 14.4534 4.51076 14.8229 4.92118L18.8377 9.38005C19.2073 9.79048 19.1741 10.4228 18.7637 10.7923L12.0754 16.8145C11.665 17.1841 11.0327 17.1509 10.6631 16.7405L6.64835 12.2816C6.2788 11.8712 6.31193 11.2389 6.72236 10.8693L13.4107 4.84717Z" fill="#31333C"/>
<rect x="4" y="20" width="16" height="2" rx="1" fill="#31333C"/>
</svg>
