<svg width="24" height="24" viewBox="0 0 24 24" fill="none" xmlns="http://www.w3.org/2000/svg">
<rect x="2" y="6" width="20" height="4" rx="1" fill="#31333C"/>
<path fill-rule="evenodd" clip-rule="evenodd" d="M9 3C7.89543 3 7 3.89543 7 5C7 6.10457 7.89543 7 9 7C10.1046 7 11 6.10457 11 5C11 3.89543 10.1046 3 9 3ZM5 5C5 2.79086 6.79086 1 9 1C11.2091 1 13 2.79086 13 5C13 7.20914 11.2091 9 9 9C6.79086 9 5 7.20914 5 5Z" fill="#31333C"/>
<path fill-rule="evenodd" clip-rule="evenodd" d="M15 3C13.8954 3 13 3.89543 13 5C13 6.10457 13.8954 7 15 7C16.1046 7 17 6.10457 17 5C17 3.89543 16.1046 3 15 3ZM11 5C11 2.79086 12.7909 1 15 1C17.2091 1 19 2.79086 19 5C19 7.20914 17.2091 9 15 9C12.7909 9 11 7.20914 11 5Z" fill="#31333C"/>
<path fill-rule="evenodd" clip-rule="evenodd" d="M5 12C3.89543 12 3 12.8954 3 14V20C3 21.1046 3.89543 22 5 22H11V12H5ZM13 12V22H19C20.1046 22 21 21.1046 21 20V14C21 12.8954 20.1046 12 19 12H13Z" fill="#31333C"/>
</svg>
