<svg width="24" height="24" viewBox="0 0 24 24" fill="none" xmlns="http://www.w3.org/2000/svg">
<path fill-rule="evenodd" clip-rule="evenodd" d="M10.2239 3.43139C10.9697 1.99056 13.0304 1.99056 13.7762 3.43139L21.7473 18.8306C22.4363 20.1619 21.4701 21.75 19.9711 21.75H4.02904C2.53002 21.75 1.5638 20.1619 2.25289 18.8306L10.2239 3.43139ZM11 9C11 8.44772 11.4477 8 12 8C12.5523 8 13 8.44772 13 9V13C13 13.5523 12.5523 14 12 14C11.4477 14 11 13.5523 11 13V9ZM12 18C12.5523 18 13 17.5523 13 17C13 16.4477 12.5523 16 12 16C11.4477 16 11 16.4477 11 17C11 17.5523 11.4477 18 12 18Z" fill="#31333C"/>
</svg>
