<svg width="24" height="24" viewBox="0 0 24 24" fill="none" xmlns="http://www.w3.org/2000/svg">
<path d="M11.1245 3.17577C9.60805 3.44772 8.22066 4.5309 7.67216 5.86298C7.43248 6.43913 7.37256 6.75717 7.37256 7.43474C7.37256 7.93715 7.391 8.13074 7.47396 8.44878C7.72747 9.38446 8.05473 10.1588 8.52027 10.9378C9.26236 12.1777 10.0874 13.3991 10.8618 14.3855C11.3734 15.0446 11.9496 15.7084 12.0003 15.7084C12.0694 15.7084 12.9498 14.6529 13.5029 13.9108C14.6644 12.3436 15.6462 10.7672 16.0518 9.82695C16.4943 8.79447 16.6879 7.94176 16.6418 7.20427C16.5312 5.45736 15.3189 3.95013 13.5352 3.35092C12.8161 3.10663 11.8712 3.03749 11.1245 3.17577ZM12.664 5.08401C13.5951 5.31908 14.2957 5.98282 14.6091 6.90467C14.7797 7.42091 14.7797 8.03394 14.6091 8.56862C14.0007 10.4676 11.6315 11.1037 10.1658 9.76242C9.56196 9.20931 9.27158 8.55479 9.27158 7.73434C9.27158 7.35177 9.29462 7.20888 9.40064 6.88623C9.85695 5.51728 11.2812 4.7291 12.664 5.08401Z" fill="black"/>
<path d="M5.5471 13.9753C5.2475 14.0675 4.98477 14.2703 4.81884 14.5422C4.76814 14.6252 4.64368 14.9709 4.54228 15.3074L4.35791 15.9204L5.05391 16.598C5.44109 16.9713 6.05873 17.5751 6.43669 17.9439C6.81004 18.308 7.14191 18.6214 7.17417 18.6399C7.20644 18.6537 7.47838 18.6076 7.7826 18.5385C8.08681 18.4647 9.94434 18.0407 11.9079 17.5982C13.8714 17.1511 16.0701 16.6533 16.7937 16.4874C17.5174 16.326 18.4392 16.114 18.8448 16.0218C19.2505 15.9296 19.5869 15.8513 19.5962 15.8421C19.6284 15.819 19.2689 14.6851 19.1905 14.5561C19.0569 14.344 18.8172 14.132 18.5913 14.0306C18.3931 13.9384 18.2963 13.9338 16.3328 13.9338H14.2817L13.9268 14.4132C13.3598 15.1737 12.083 16.6763 12.0001 16.6763C11.9171 16.6763 10.6634 15.206 10.0872 14.4316L9.71849 13.9338L7.69041 13.9384C6.57497 13.9384 5.61163 13.9569 5.5471 13.9753Z" fill="black"/>
<path d="M18.6378 16.9068C18.0662 17.0404 17.1536 17.2478 16.6097 17.3677C16.0658 17.4921 15.6095 17.5981 15.6049 17.6028C15.5634 17.6304 15.7478 17.8378 16.8632 18.9855C17.5269 19.6677 18.4488 20.6264 18.9143 21.1104C19.4813 21.7004 19.7993 22 19.8638 22C20.0436 22 20.3801 21.8571 20.5644 21.6958C20.6705 21.6082 20.8087 21.4192 20.8779 21.281C21.0899 20.8431 21.0761 20.7463 20.4308 18.5753C19.9191 16.8468 19.8546 16.6532 19.767 16.6579C19.7163 16.6625 19.2093 16.7731 18.6378 16.9068Z" fill="black"/>
<path d="M4.07233 16.8607C4.07233 16.8745 3.83265 17.6995 3.53305 18.6952C2.92924 20.7371 2.9108 20.8477 3.12283 21.281C3.19196 21.4192 3.33024 21.6082 3.43626 21.6958C3.79578 22.0046 3.74969 22 6.73188 22C8.21146 22 9.41909 21.9954 9.41909 21.9862C9.41909 21.9677 8.29442 20.8661 7.39101 19.995C6.22486 18.8703 5.35832 18.036 4.73607 17.4276C4.18757 16.8883 4.07233 16.7915 4.07233 16.8607Z" fill="black"/>
<path d="M11.6088 18.5016C10.0647 18.8565 8.6036 19.1883 8.36853 19.239C8.13346 19.2944 7.94909 19.3589 7.9537 19.3773C7.96292 19.4004 8.57134 19.9996 9.30421 20.7094L10.6409 22H14.6187C16.8035 22 18.5919 21.9908 18.5919 21.977C18.5919 21.9631 17.7069 21.0367 16.6237 19.912C15.1119 18.3449 14.6279 17.8747 14.5403 17.8655C14.4758 17.8609 13.1576 18.1467 11.6088 18.5016Z" fill="black"/>
</svg>
