<svg width="24" height="24" viewBox="0 0 24 24" fill="none" xmlns="http://www.w3.org/2000/svg">
<rect x="2" y="17" width="20" height="3" rx="1.5" fill="#31333C"/>
<rect x="5" y="14" width="14" height="2" rx="1" fill="#31333C"/>
<rect x="11" y="3" width="2" height="2" rx="1" fill="#31333C"/>
<path d="M6 12C6 8.68629 8.68629 6 12 6C15.3137 6 18 8.68629 18 12V12.25C18 12.6642 17.6642 13 17.25 13H6.75C6.33579 13 6 12.6642 6 12.25V12Z" fill="#31333C"/>
<path d="M10 18C10 17.4477 10.4477 17 11 17H13C13.5523 17 14 17.4477 14 18V21C14 21.5523 13.5523 22 13 22H11C10.4477 22 10 21.5523 10 21V18Z" fill="#31333C"/>
</svg>
