<svg width="24" height="24" viewBox="0 0 24 24" fill="none" xmlns="http://www.w3.org/2000/svg">
<path d="M14.9399 5.19C15.318 4.75428 15.6062 4.24817 15.7881 3.70074C15.97 3.1533 16.042 2.57533 15.9999 2C14.8393 2.09369 13.7619 2.63956 12.9999 3.52C12.635 3.94198 12.3585 4.43288 12.1867 4.96364C12.015 5.49441 11.9514 6.05424 11.9999 6.61C12.5661 6.61472 13.1257 6.4891 13.6355 6.24286C14.1453 5.99662 14.5916 5.63637 14.9399 5.19ZM17.4599 12.63C17.4666 11.8637 17.6685 11.1118 18.0464 10.4452C18.4243 9.77859 18.9659 9.21926 19.6199 8.82C19.2071 8.22524 18.6615 7.73483 18.0262 7.38767C17.3909 7.04052 16.6834 6.84615 15.9599 6.82C14.3999 6.66 12.9599 7.73 12.1299 7.73C11.2999 7.73 10.1299 6.84 8.82991 6.86C7.98004 6.888 7.15193 7.13578 6.42636 7.57919C5.70079 8.02259 5.10252 8.64648 4.68991 9.39C2.92991 12.45 4.23991 17 5.99991 19.47C6.79991 20.68 7.79991 22.05 9.11991 22C10.4399 21.95 10.8699 21.18 12.3999 21.18C13.9299 21.18 14.3999 22 15.6999 21.97C16.9999 21.94 17.9199 20.73 18.7599 19.52C19.355 18.6415 19.8198 17.6816 20.1399 16.67C19.3474 16.332 18.6712 15.7693 18.195 15.0513C17.7187 14.3333 17.4631 13.4916 17.4599 12.63Z" fill="black"/>
</svg>
