<svg width="24" height="24" viewBox="0 0 24 24" fill="none" xmlns="http://www.w3.org/2000/svg">
<path fill-rule="evenodd" clip-rule="evenodd" d="M15.1196 21.2359L17.8382 21.618C18.932 21.7717 19.9434 21.0096 20.0971 19.9158L21.7672 8.0326C21.9209 6.93878 21.1588 5.92744 20.065 5.77371L16.5001 5.2727V19C16.5001 19.9782 15.9382 20.8253 15.1196 21.2359Z" fill="#31333C"/>
<path fill-rule="evenodd" clip-rule="evenodd" d="M4 3.5C3.17157 3.5 2.5 4.17157 2.5 5V19C2.5 19.8284 3.17157 20.5 4 20.5H14C14.8284 20.5 15.5 19.8284 15.5 19V5C15.5 4.17157 14.8284 3.5 14 3.5H4ZM5.64545 12.4683C4.88375 11.766 4.78437 10.659 5.41048 9.85083C6.20195 8.82925 7.79894 8.7074 8.7618 9.59511L9 9.81473L9.2382 9.59511C10.2011 8.7074 11.7981 8.82925 12.5895 9.85083C13.2156 10.659 13.1163 11.766 12.3546 12.4683L10.0388 14.6033C9.46508 15.1322 8.53492 15.1322 7.96122 14.6033L5.64545 12.4683Z" fill="#31333C"/>
</svg>
