<svg width="24" height="24" viewBox="0 0 24 24" fill="none" xmlns="http://www.w3.org/2000/svg">
<path d="M3.91087 6.06183C3.50044 5.69228 3.4673 5.05998 3.83686 4.64956C4.20641 4.23913 4.8387 4.20599 5.24913 4.57554L20.0897 17.9381C20.5002 18.3076 20.5333 18.9399 20.1637 19.3503C19.7942 19.7608 19.1619 19.7939 18.7515 19.4244L3.91087 6.06183Z" fill="#31333C"/>
<path fill-rule="evenodd" clip-rule="evenodd" d="M7.13723 6.27552C5.82235 7.01624 4.67483 8.05813 3.80211 9.34425L2.63266 11.0676C2.2507 11.6305 2.2507 12.3695 2.63266 12.9324L3.80211 14.6558C5.64592 17.3729 8.71628 19 12 19C14.433 19 16.749 18.1068 18.5356 16.5387L16.3105 14.5352C15.4411 16.0103 13.8361 17 12 17C9.23857 17 6.99999 14.7614 6.99999 12C6.99999 10.3514 7.79784 8.88921 9.02847 7.9784L7.13723 6.27552ZM9.93203 7.44634L8.10235 5.79889C9.31701 5.279 10.6402 5 12 5C15.2837 5 18.3541 6.62705 20.1979 9.34425L21.3673 11.0676C21.7493 11.6305 21.7493 12.3695 21.3673 12.9324L20.1979 14.6558C19.9117 15.0775 19.5959 15.473 19.2544 15.8402L16.745 13.5807C16.9104 13.0839 17 12.5524 17 12C17 9.23858 14.7614 7 12 7C11.2625 7 10.5623 7.15968 9.93203 7.44634ZM10.567 9.36371C10.5489 9.37357 10.531 9.3836 10.5131 9.39381C10.8124 9.66804 11 10.0621 11 10.5C11 11.3284 10.3284 12 9.49999 12C9.32511 12 9.15723 11.9701 9.00117 11.9151C9.00039 11.9433 8.99999 11.9716 8.99999 12C8.99999 13.6569 10.3431 15 12 15C13.2496 15 14.3207 14.236 14.7718 13.1497L10.567 9.36371ZM15 12.0095L11.6767 9.01722C11.7829 9.00584 11.8908 9 12 9C13.6568 9 15 10.3431 15 12C15 12.0032 15 12.0064 15 12.0095Z" fill="#31333C"/>
</svg>
