<svg width="24" height="24" viewBox="0 0 24 24" fill="none" xmlns="http://www.w3.org/2000/svg">
<path d="M11.1606 3.29669C11.5548 2.68825 12.4463 2.68807 12.8403 3.29669L13.7222 4.65997C13.9793 5.05736 14.4798 5.21992 14.9214 5.04962L16.436 4.46564C17.1124 4.20505 17.8329 4.72827 17.7944 5.45197L17.7075 7.07404C17.6821 7.54662 17.9914 7.97278 18.4487 8.09454L20.0181 8.51154C20.7185 8.69831 20.9935 9.54634 20.5366 10.1092L19.5132 11.369C19.2147 11.7363 19.2148 12.2623 19.5132 12.6297L20.5366 13.8904C20.9938 14.4532 20.7184 15.3001 20.0181 15.4871L18.4487 15.9051C17.9914 16.0268 17.6822 16.4531 17.7075 16.9256L17.7944 18.5467C17.8336 19.2709 17.1127 19.7949 16.436 19.534L14.9214 18.949C14.48 18.7789 13.9794 18.9418 13.7222 19.3387L12.8403 20.702C12.4463 21.3109 11.5547 21.3109 11.1606 20.702L10.2788 19.3387C10.0217 18.9418 9.52092 18.7792 9.07959 18.949L7.56396 19.534C6.88735 19.7946 6.16646 19.2708 6.20557 18.5467L6.29346 16.9256C6.31878 16.4532 6.00943 16.0269 5.55225 15.9051L3.98291 15.4871C3.28217 15.3004 3.00704 14.4533 3.46436 13.8904L4.48779 12.6297C4.78589 12.2623 4.78615 11.7362 4.48779 11.369L3.46436 10.1092C3.00715 9.54627 3.28212 8.69818 3.98291 8.51154L5.55225 8.09454C6.00941 7.97266 6.31888 7.5465 6.29346 7.07404L6.20557 5.45197C6.16707 4.72823 6.88757 4.20494 7.56396 4.46564L9.07959 5.04962C9.52116 5.21978 10.0217 5.05729 10.2788 4.65997L11.1606 3.29669ZM15.4009 8.59943C15.0105 8.20908 14.3773 8.20926 13.9868 8.59943L8.59912 13.9861C8.20874 14.3767 8.20871 15.0107 8.59912 15.4012C8.9896 15.7911 9.62282 15.7913 10.0132 15.4012L15.4009 10.0135C15.7909 9.62312 15.7907 8.98988 15.4009 8.59943ZM14.8286 13.4139C14.4382 13.0235 13.8051 13.0237 13.4146 13.4139C13.0242 13.8044 13.0241 14.4375 13.4146 14.8279C13.8051 15.2182 14.4382 15.2183 14.8286 14.8279C15.2187 14.4375 15.2188 13.8043 14.8286 13.4139ZM10.5864 9.17072C10.196 8.7804 9.56191 8.78059 9.17139 9.17072C8.78101 9.56122 8.78099 10.1953 9.17139 10.5858C9.56189 10.976 10.196 10.9761 10.5864 10.5858C10.9765 10.1953 10.9766 9.56114 10.5864 9.17072Z" fill="#31333C"/>
</svg>
