<svg width="24" height="24" viewBox="0 0 24 24" fill="none" xmlns="http://www.w3.org/2000/svg">
<path fill-rule="evenodd" clip-rule="evenodd" d="M11.9702 2.5C5.58324 2.5 4.50424 3.432 4.50424 10.929C4.50424 19.322 4.34724 21.5 5.94324 21.5C7.53824 21.5 10.1432 17.816 11.9702 17.816C13.7972 17.816 16.4022 21.5 17.9972 21.5C19.5932 21.5 19.4362 19.322 19.4362 10.929C19.4362 3.432 18.3572 2.5 11.9702 2.5Z" fill="#FEE0D2"/>
<path d="M11.9707 1.75C13.5718 1.75001 14.9021 1.80747 15.9814 2.02832C17.0744 2.252 17.9756 2.65609 18.6523 3.39746C19.3211 4.13013 19.693 5.1076 19.9062 6.31934C20.1191 7.52882 20.1865 9.04726 20.1865 10.9287C20.1865 11.6549 20.1873 12.337 20.1885 12.9766C20.1939 16.001 20.1979 18.0803 20.0615 19.4365C19.9802 20.2456 19.8397 20.9325 19.5312 21.4258C19.3654 21.691 19.1453 21.9112 18.8594 22.0576C18.5784 22.2014 18.281 22.25 17.9971 22.25C17.3484 22.2499 16.7196 21.8928 16.2119 21.54C15.7163 21.1957 15.1946 20.7498 14.7012 20.3281C14.6621 20.2947 14.6227 20.2616 14.584 20.2285C14.0391 19.7634 13.5272 19.3339 13.0469 19.0186C12.5489 18.6917 12.1989 18.5665 11.9707 18.5664C11.7425 18.5664 11.3918 18.6915 10.8936 19.0186C10.4133 19.3339 9.9013 19.7634 9.35645 20.2285C9.31785 20.2615 9.27921 20.2948 9.24023 20.3281C8.74692 20.7497 8.22507 21.1956 7.72949 21.54C7.2217 21.8929 6.59213 22.25 5.94336 22.25C5.65946 22.25 5.36296 22.2013 5.08203 22.0576C4.79591 21.9112 4.5751 21.6911 4.40918 21.4258C4.10083 20.9325 3.96025 20.2455 3.87891 19.4365C3.74257 18.0803 3.74649 16.0009 3.75195 12.9766C3.75311 12.337 3.75391 11.6549 3.75391 10.9287C3.75391 9.04729 3.8213 7.52881 4.03418 6.31934C4.24746 5.10766 4.61935 4.13011 5.28809 3.39746C5.96486 2.65606 6.86598 2.25201 7.95898 2.02832C9.03843 1.80741 10.3693 1.75 11.9707 1.75ZM11.9707 3.25C10.3787 3.25 9.17896 3.30898 8.25977 3.49707C7.35412 3.68241 6.78783 3.98046 6.39648 4.40918C5.99721 4.84662 5.70033 5.50769 5.51172 6.5791C5.32273 7.65276 5.25391 9.06199 5.25391 10.9287C5.25391 11.6725 5.25305 12.3656 5.25195 13.0107C5.24682 16.0365 5.24408 18.0143 5.37207 19.2871C5.45092 20.0711 5.56979 20.4534 5.68066 20.6309C5.72437 20.7007 5.75381 20.7171 5.76465 20.7227C5.78055 20.7308 5.82835 20.75 5.94336 20.75C6.09207 20.75 6.38677 20.6465 6.87305 20.3086C7.30416 20.009 7.77021 19.6102 8.28223 19.1729C8.31537 19.1445 8.34929 19.1165 8.38281 19.0879C8.91685 18.6321 9.49853 18.1401 10.0703 17.7646C10.6242 17.401 11.2854 17.0664 11.9707 17.0664C12.6559 17.0665 13.3163 17.4011 13.8701 17.7646C14.4419 18.1401 15.0235 18.632 15.5576 19.0879C15.5912 19.1165 15.625 19.1445 15.6582 19.1729C16.1702 19.6102 16.6363 20.009 17.0674 20.3086C17.5534 20.6463 17.8482 20.7499 17.9971 20.75C18.1117 20.75 18.1597 20.7308 18.1758 20.7227C18.1866 20.7171 18.216 20.7009 18.2598 20.6309C18.3707 20.4535 18.4905 20.0713 18.5693 19.2871C18.6973 18.0143 18.6936 16.0365 18.6885 13.0107C18.6874 12.3656 18.6865 11.6725 18.6865 10.9287C18.6865 9.06199 18.6187 7.65276 18.4297 6.5791C18.2411 5.50789 17.9441 4.84664 17.5449 4.40918C17.1536 3.98046 16.5863 3.68241 15.6807 3.49707C14.7616 3.30904 13.5624 3.25001 11.9707 3.25ZM15.3975 8.46777C15.8117 8.46777 16.1475 8.80356 16.1475 9.21777C16.1474 9.63195 15.8116 9.96777 15.3975 9.96777H8.54297C8.12878 9.96777 7.79301 9.63195 7.79297 9.21777C7.79297 8.80356 8.12876 8.46777 8.54297 8.46777H15.3975Z" fill="#ED2124"/>
</svg>
