<svg width="24" height="24" viewBox="0 0 24 24" fill="none" xmlns="http://www.w3.org/2000/svg">
<rect x="4" y="3" width="16" height="19" rx="4" fill="#31333C"/>
<rect x="8" y="5" width="8" height="2" rx="1" fill="white"/>
<rect x="10" y="1" width="4" height="5" rx="1" fill="#31333C"/>
<path d="M14.5 12.5C14.5 13.8807 13.3807 15 12 15C10.6193 15 9.5 13.8807 9.5 12.5C9.5 11.1193 10.6193 10 12 10C13.3807 10 14.5 11.1193 14.5 12.5Z" fill="white"/>
<path d="M8 19.2258C8 17.4442 9.44424 16 11.2258 16H12.7742C14.5558 16 16 17.4442 16 19.2258C16 19.6534 15.6534 20 15.2258 20H8.77419C8.34662 20 8 19.6534 8 19.2258Z" fill="white"/>
</svg>
