<svg width="24" height="24" viewBox="0 0 24 24" fill="none" xmlns="http://www.w3.org/2000/svg">
<path fill-rule="evenodd" clip-rule="evenodd" d="M19 9C19 11.3909 17.8013 13.5018 15.9721 14.7646C15.9903 14.8401 16 14.9189 16 15V21.1492C16 22.0945 14.8096 22.5121 14.2191 21.7739L12.7809 19.9761C12.3805 19.4757 11.6195 19.4757 11.2191 19.9761L9.78087 21.7739C9.19036 22.5121 8 22.0945 8 21.1492V15C8 14.9189 8.00965 14.8401 8.02786 14.7646C6.19868 13.5018 5 11.3909 5 9C5 5.13401 8.13401 2 12 2C15.866 2 19 5.13401 19 9ZM12 14C14.7614 14 17 11.7614 17 9C17 6.23858 14.7614 4 12 4C9.23858 4 7 6.23858 7 9C7 11.7614 9.23858 14 12 14Z" fill="#31333C"/>
<path d="M11.5247 6.46353C11.6744 6.00288 12.3261 6.00288 12.4758 6.46353L12.786 7.41845C12.853 7.62446 13.0449 7.76394 13.2616 7.76394H14.2656C14.75 7.76394 14.9514 8.38375 14.5595 8.66845L13.7472 9.25862C13.572 9.38594 13.4986 9.61162 13.5656 9.81764L13.8758 10.7725C14.0255 11.2332 13.4983 11.6163 13.1064 11.3316L12.2941 10.7414C12.1189 10.6141 11.8816 10.6141 11.7063 10.7414L10.894 11.3316C10.5022 11.6163 9.97494 11.2332 10.1246 10.7726L10.4349 9.81764C10.5018 9.61163 10.4285 9.38594 10.2533 9.25862L9.44095 8.66845C9.0491 8.38375 9.25048 7.76394 9.73485 7.76394H10.7389C10.9555 7.76394 11.1475 7.62446 11.2144 7.41845L11.5247 6.46353Z" fill="#31333C"/>
</svg>
