<svg width="24" height="24" viewBox="0 0 24 24" fill="none" xmlns="http://www.w3.org/2000/svg">
<path fill-rule="evenodd" clip-rule="evenodd" d="M12 5C8.71628 5 5.64592 6.62706 3.80211 9.34425L2.63266 11.0676C2.2507 11.6305 2.2507 12.3695 2.63266 12.9324L3.80211 14.6558C5.64592 17.3729 8.71628 19 12 19C15.2837 19 18.3541 17.3729 20.1979 14.6558L21.3673 12.9324C21.7493 12.3695 21.7493 11.6305 21.3673 11.0676L20.1979 9.34425C18.3541 6.62705 15.2837 5 12 5ZM17 12C17 14.7614 14.7614 17 12 17C9.23857 17 6.99999 14.7614 6.99999 12C6.99999 9.23858 9.23857 7 12 7C14.7614 7 17 9.23858 17 12ZM9.49999 12C10.3284 12 11 11.3284 11 10.5C11 10.0621 10.8124 9.66804 10.5131 9.39381C10.9514 9.14322 11.459 9 12 9C13.6568 9 15 10.3431 15 12C15 13.6569 13.6568 15 12 15C10.3431 15 8.99999 13.6569 8.99999 12C8.99999 11.9716 9.00039 11.9433 9.00117 11.9151C9.15723 11.9701 9.32511 12 9.49999 12Z" fill="#31333C"/>
</svg>
