<svg width="26" height="28" viewBox="0 0 26 28" fill="none" xmlns="http://www.w3.org/2000/svg">
<path d="M7.81689 6.02273C7.67882 5.78359 7.76076 5.47779 7.99991 5.33972C8.23905 5.20165 8.54485 5.28359 8.68292 5.52273L18.1829 21.9772C18.321 22.2164 18.2391 22.5222 17.9999 22.6602C17.7608 22.7983 17.455 22.7164 17.3169 22.4772L7.81689 6.02273Z" fill="#31333C"/>
<path d="M7.17348 8.90804C6.96903 8.55392 7.00077 8.111 7.25363 7.78965L8.25267 6.52004C8.41146 6.31824 8.64178 6.18526 8.89594 6.14865L10.495 5.91826C10.8997 5.85995 11.2992 6.05392 11.5036 6.40804L12.1651 7.55376C12.4412 8.03206 12.2774 8.64365 11.7991 8.91979L10.5 9.66979L9.20099 10.4198C8.72269 10.6959 8.1111 10.5321 7.83496 10.0538L7.17348 8.90804Z" fill="#31333C"/>
<path d="M9.67348 13.2382C9.46903 12.8841 9.50077 12.4412 9.75363 12.1199L10.7527 10.8502C10.9115 10.6484 11.1418 10.5155 11.3959 10.4788L12.995 10.2485C13.3997 10.1902 13.7992 10.3841 14.0036 10.7382L14.6651 11.884C14.9412 12.3623 14.7774 12.9738 14.2991 13.25L13 14L11.701 14.75C11.2227 15.0261 10.6111 14.8623 10.335 14.384L9.67348 13.2382Z" fill="#31333C"/>
<path d="M12.1735 17.5683C11.969 17.2142 12.0008 16.7713 12.2536 16.4499L13.2527 15.1803C13.4115 14.9785 13.6418 14.8455 13.8959 14.8089L15.495 14.5785C15.8997 14.5202 16.2992 14.7142 16.5036 15.0683L17.1651 16.214C17.4412 16.6923 17.2774 17.3039 16.7991 17.5801L15.5 18.3301L14.201 19.0801C13.7227 19.3562 13.1111 19.1923 12.835 18.714L12.1735 17.5683Z" fill="#31333C"/>
<path d="M13.4458 2.77273C13.3077 2.53359 13.3897 2.22779 13.6288 2.08972C13.868 1.95165 14.1738 2.03359 14.3118 2.27273L23.8118 18.7272C23.9499 18.9664 23.868 19.2722 23.6288 19.4102C23.3897 19.5483 23.0839 19.4664 22.9458 19.2272L13.4458 2.77273Z" fill="#31333C"/>
<path d="M12.8024 5.65804C12.5979 5.30392 12.6297 4.861 12.8825 4.53965L13.8816 3.27004C14.0404 3.06824 14.2707 2.93526 14.5248 2.89865L16.1239 2.66826C16.5286 2.60995 16.9281 2.80392 17.1325 3.15804L17.794 4.30376C18.0701 4.78206 17.9063 5.39365 17.428 5.66979L16.1289 6.41979L14.8299 7.16979C14.3516 7.44593 13.74 7.28206 13.4639 6.80376L12.8024 5.65804Z" fill="#31333C"/>
<path d="M15.3024 9.98824C15.0979 9.63412 15.1297 9.1912 15.3825 8.86985L16.3816 7.60024C16.5404 7.39844 16.7707 7.26546 17.0248 7.22885L18.6239 6.99846C19.0286 6.94015 19.4281 7.13412 19.6325 7.48824L20.294 8.63396C20.5701 9.11226 20.4063 9.72385 19.928 9.99999L18.6289 10.75L17.3299 11.5C16.8516 11.7761 16.24 11.6123 15.9639 11.134L15.3024 9.98824Z" fill="#31333C"/>
<path d="M17.8024 14.3183C17.5979 13.9642 17.6297 13.5213 17.8825 13.1999L18.8816 11.9303C19.0404 11.7285 19.2707 11.5955 19.5248 11.5589L21.1239 11.3285C21.5286 11.2702 21.9281 11.4642 22.1325 11.8183L22.794 12.964C23.0701 13.4423 22.9063 14.0539 22.428 14.3301L21.1289 15.0801L19.8299 15.8301C19.3516 16.1062 18.74 15.9423 18.4639 15.464L17.8024 14.3183Z" fill="#31333C"/>
<path d="M2.1875 9.27273C2.04943 9.03359 2.13137 8.72779 2.37051 8.58972C2.60966 8.45165 2.91545 8.53359 3.05353 8.77273L12.5535 25.2272C12.6916 25.4664 12.6097 25.7722 12.3705 25.9102C12.1314 26.0483 11.8256 25.9664 11.6875 25.7272L2.1875 9.27273Z" fill="#31333C"/>
<path d="M1.54408 12.158C1.33963 11.8039 1.37137 11.361 1.62424 11.0397L2.62327 9.77004C2.78206 9.56824 3.01239 9.43526 3.26654 9.39865L4.86558 9.16826C5.2703 9.10995 5.66976 9.30392 5.87421 9.65804L6.53569 10.8038C6.81184 11.2821 6.64796 11.8936 6.16967 12.1698L4.87063 12.9198L3.57159 13.6698C3.0933 13.9459 2.48171 13.7821 2.20557 13.3038L1.54408 12.158Z" fill="#31333C"/>
<path d="M4.04408 16.4882C3.83963 16.1341 3.87137 15.6912 4.12424 15.3699L5.12327 14.1002C5.28206 13.8984 5.51239 13.7655 5.76654 13.7288L7.36558 13.4985C7.7703 13.4402 8.16976 13.6341 8.37421 13.9882L9.03569 15.134C9.31184 15.6123 9.14796 16.2238 8.66967 16.5L7.37063 17.25L6.07159 18C5.5933 18.2761 4.98171 18.1123 4.70557 17.634L4.04408 16.4882Z" fill="#31333C"/>
<path d="M6.54408 20.8183C6.33963 20.4642 6.37137 20.0213 6.62424 19.6999L7.62327 18.4303C7.78206 18.2285 8.01239 18.0955 8.26654 18.0589L9.86558 17.8285C10.2703 17.7702 10.6698 17.9642 10.8742 18.3183L11.5357 19.464C11.8118 19.9423 11.648 20.5539 11.1697 20.8301L9.87063 21.5801L8.57159 22.3301C8.0933 22.6062 7.48171 22.4423 7.20557 21.964L6.54408 20.8183Z" fill="#31333C"/>
</svg>
