<svg width="24" height="24" viewBox="0 0 24 24" fill="none" xmlns="http://www.w3.org/2000/svg">
<rect width="24" height="24" rx="12" fill="#ECEEF5"/>
<path fill-rule="evenodd" clip-rule="evenodd" d="M16.4713 7.52864C16.7317 7.78899 16.7317 8.2111 16.4713 8.47145L8.47132 16.4714C8.21097 16.7318 7.78886 16.7318 7.52851 16.4714C7.26816 16.2111 7.26816 15.789 7.52851 15.5286L15.5285 7.52864C15.7889 7.26829 16.211 7.26829 16.4713 7.52864Z" fill="#31333C"/>
<path fill-rule="evenodd" clip-rule="evenodd" d="M7.52851 7.52864C7.78886 7.26829 8.21097 7.26829 8.47132 7.52864L16.4713 15.5286C16.7317 15.789 16.7317 16.2111 16.4713 16.4714C16.211 16.7318 15.7889 16.7318 15.5285 16.4714L7.52851 8.47145C7.26816 8.2111 7.26816 7.78899 7.52851 7.52864Z" fill="#31333C"/>
</svg>
