<svg width="24" height="24" viewBox="0 0 24 24" fill="none" xmlns="http://www.w3.org/2000/svg">
<path d="M1 21C1 20.4477 1.44772 20 2 20H22C22.5523 20 23 20.4477 23 21C23 21.5523 22.5523 22 22 22H2C1.44772 22 1 21.5523 1 21Z" fill="#31333C"/>
<path d="M2 12C2 11.4477 2.44772 11 3 11H21C21.5523 11 22 11.4477 22 12C22 12.5523 21.5523 13 21 13H3C2.44772 13 2 12.5523 2 12Z" fill="#31333C"/>
<path d="M11 10C11 9.44772 11.4477 9 12 9C12.5523 9 13 9.44772 13 10V21C13 21.5523 12.5523 22 12 22C11.4477 22 11 21.5523 11 21V10Z" fill="#31333C"/>
<path fill-rule="evenodd" clip-rule="evenodd" d="M4.44137 2.90287C4.96357 2.03253 5.90413 1.5 6.91911 1.5H17C17.9222 1.5 18.7819 1.96652 19.2845 2.73977L21.2069 5.69735C21.3982 5.9916 21.5 6.33502 21.5 6.68597C21.5 7.68783 20.6878 8.5 19.686 8.5H19.5C18.3954 8.5 17.5 7.60457 17.5 6.5C17.5 6.22386 17.2761 6 17 6C16.7239 6 16.5 6.22386 16.5 6.5C16.5 7.60457 15.6046 8.5 14.5 8.5C13.3954 8.5 12.5 7.60457 12.5 6.5C12.5 6.22386 12.2761 6 12 6C11.7239 6 11.5 6.22386 11.5 6.5C11.5 7.60457 10.6046 8.5 9.5 8.5C8.39543 8.5 7.5 7.60457 7.5 6.5C7.5 6.22386 7.27614 6 7 6C6.72386 6 6.5 6.22386 6.5 6.5C6.5 7.60457 5.60457 8.5 4.5 8.5H4.34929C3.32795 8.5 2.5 7.67205 2.5 6.65071C2.5 6.31554 2.59109 5.98667 2.76354 5.69926L4.44137 2.90287Z" fill="#31333C"/>
<path d="M5 12C5 11.4477 5.44772 11 6 11C6.55228 11 7 11.4477 7 12V21C7 21.5523 6.55228 22 6 22C5.44772 22 5 21.5523 5 21V12Z" fill="#31333C"/>
<path d="M8 12C8 11.4477 8.44772 11 9 11C9.55228 11 10 11.4477 10 12V21C10 21.5523 9.55228 22 9 22C8.44772 22 8 21.5523 8 21V12Z" fill="#31333C"/>
<path d="M2 10C2 9.44772 2.44772 9 3 9C3.55228 9 4 9.44772 4 10V21C4 21.5523 3.55228 22 3 22C2.44772 22 2 21.5523 2 21V10Z" fill="#31333C"/>
<path d="M14 12C14 11.4477 14.4477 11 15 11C15.5523 11 16 11.4477 16 12V21C16 21.5523 15.5523 22 15 22C14.4477 22 14 21.5523 14 21V12Z" fill="#31333C"/>
<path d="M17 12C17 11.4477 17.4477 11 18 11C18.5523 11 19 11.4477 19 12V21C19 21.5523 18.5523 22 18 22C17.4477 22 17 21.5523 17 21V12Z" fill="#31333C"/>
<path d="M20 10C20 9.44772 20.4477 9 21 9C21.5523 9 22 9.44772 22 10V21C22 21.5523 21.5523 22 21 22C20.4477 22 20 21.5523 20 21V10Z" fill="#31333C"/>
</svg>
