<svg width="24" height="24" viewBox="0 0 24 24" fill="none" xmlns="http://www.w3.org/2000/svg">
<path fill-rule="evenodd" clip-rule="evenodd" d="M9.74953 4.25C9.74953 5.11195 9.40711 5.9386 8.79762 6.5481C8.18813 7.15759 7.36148 7.5 6.49952 7.5C5.63757 7.5 4.81092 7.15759 4.20143 6.5481C3.59193 5.9386 3.24952 5.11195 3.24952 4.25C3.24952 3.38805 3.59193 2.5614 4.20143 1.9519C4.81092 1.34241 5.63757 1 6.49952 1C7.36148 1 8.18813 1.34241 8.79762 1.9519C9.40711 2.5614 9.74953 3.38805 9.74953 4.25ZM6.49952 8.25C5.31302 8.25 4.39702 8.2915 3.72102 8.342C2.68402 8.419 1.87002 9.164 1.65002 10.1695C1.27917 11.8717 1.01334 13.5951 0.854025 15.33C0.832577 15.5483 0.855283 15.7687 0.92079 15.9781C0.986297 16.1874 1.09327 16.3815 1.23533 16.5486C1.37739 16.7158 1.55163 16.8527 1.74769 16.9511C1.94375 17.0495 2.1576 17.1075 2.37652 17.1215C2.65719 17.1408 2.97719 17.1592 3.33652 17.1765L3.67052 21.687C3.72552 22.4365 4.26352 23.0865 5.04202 23.172C6.01103 23.2771 6.98856 23.2769 7.95752 23.1715C8.73602 23.0865 9.27402 22.4365 9.32952 21.687L9.37002 21.1365C9.28861 20.26 9.24856 19.3802 9.25002 18.5C9.25002 17.429 9.30652 16.5335 9.37002 15.862C9.50702 14.421 10.435 13.1605 11.815 12.6605C11.685 11.8255 11.5297 10.9946 11.3495 10.169C11.1295 9.164 10.316 8.419 9.27852 8.342C8.35381 8.277 7.42701 8.24631 6.50002 8.25H6.49952ZM14.301 12.6785C14.1412 13.0609 14.0032 13.452 13.8875 13.85C13.4765 13.88 13.129 13.915 12.8375 13.95C11.7425 14.082 10.964 14.945 10.8635 16.004C10.7865 16.8338 10.7486 17.6667 10.75 18.5C10.75 19.519 10.8035 20.3665 10.8635 20.996C10.964 22.0545 11.742 22.918 12.8375 23.0505C13.686 23.1525 15.014 23.25 17 23.25C18.986 23.25 20.314 23.1525 21.1625 23.05C22.2575 22.918 23.036 22.055 23.1365 20.996C23.1965 20.3665 23.25 19.519 23.25 18.5C23.25 17.481 23.1965 16.6335 23.1365 16.004C23.036 14.9455 22.258 14.082 21.1625 13.9495C20.8133 13.9081 20.4632 13.8748 20.1125 13.8495C19.9969 13.4517 19.8588 13.0607 19.699 12.6785C19.409 11.973 18.777 11.4035 17.9435 11.3045C17.6304 11.2678 17.3153 11.2496 17 11.25C16.64 11.25 16.3235 11.2725 16.057 11.3045C15.2235 11.4035 14.592 11.973 14.301 12.6785ZM17 12.75C16.703 12.75 16.4455 12.769 16.2335 12.794C16.0135 12.82 15.8015 12.974 15.6885 13.2495C15.621 13.413 15.5525 13.5895 15.488 13.7705C15.9427 13.7572 16.4467 13.7503 17 13.75C17.83 13.7495 18.057 13.7575 18.5125 13.7705C18.4501 13.5952 18.3834 13.4215 18.3125 13.2495C18.199 12.9745 17.9865 12.82 17.7665 12.794C17.5121 12.7642 17.2562 12.7496 17 12.75Z" fill="black"/>
</svg>
