<svg width="24" height="24" viewBox="0 0 24 24" fill="none" xmlns="http://www.w3.org/2000/svg">
<path fill-rule="evenodd" clip-rule="evenodd" d="M17 2C16.4477 2 16 2.44772 16 3C16 3.55228 16.4477 4 17 4H19.5858L12.083 11.5029L9.5873 8.38327C8.77057 7.36236 7.21 7.38674 6.42556 8.43266L1.20006 15.4C0.868688 15.8418 0.958231 16.4686 1.40006 16.8C1.84189 17.1314 2.46869 17.0418 2.80006 16.6L8.02556 9.63266L10.5212 12.7523C11.2659 13.6831 12.6543 13.76 13.4972 12.9171L21 5.41427V8C21 8.55228 21.4477 9 22 9C22.5523 9 23 8.55228 23 8V4C23 2.89543 22.1046 2 21 2H17ZM17 12C16.4477 12 16 12.4477 16 13V21C16 21.5523 16.4477 22 17 22H19C19.5523 22 20 21.5523 20 21V13C20 12.4477 19.5523 12 19 12H17ZM10 17C10 16.4477 10.4477 16 11 16H13C13.5523 16 14 16.4477 14 17V21C14 21.5523 13.5523 22 13 22H11C10.4477 22 10 21.5523 10 21V17ZM4 19C4 18.4477 4.44772 18 5 18H7C7.55228 18 8 18.4477 8 19V21C8 21.5523 7.55228 22 7 22H5C4.44772 22 4 21.5523 4 21V19Z" fill="#31333C"/>
</svg>
