<svg width="24" height="24" viewBox="0 0 24 24" fill="none" xmlns="http://www.w3.org/2000/svg">
<path d="M19.9146 17.2506C20.686 17.2506 21.3111 17.8884 21.3111 18.6754C21.3111 19.4624 20.686 20.1002 19.9146 20.1002H13.862V20.8663C13.862 21.4924 13.3645 22 12.7509 22H11.2491C10.6355 22 10.138 21.4924 10.138 20.8663V20.1002H4.0854C3.31412 20.1001 2.6889 19.4623 2.6889 18.6754C2.68894 17.8885 3.31414 17.2507 4.0854 17.2506H19.9146Z" fill="#31333C"/>
<path fill-rule="evenodd" clip-rule="evenodd" d="M16.591 3C17.6966 3.00013 18.6339 3.82958 18.7904 4.94628L19.1051 7.20033L21.795 12.5886C22.4256 13.8526 21.5251 15.3508 20.1349 15.3508H19.6249C19.2244 15.9214 18.5704 16.3006 17.8182 16.3007H6.18178C5.42966 16.3005 4.77552 15.9214 4.37512 15.3508H3.86513C2.47491 15.3508 1.57445 13.8526 2.20495 12.5886L4.89379 7.20033L5.20955 4.94628C5.36609 3.82965 6.30346 3.00025 7.40901 3H16.591ZM3.03504 13.0192C2.71956 13.6513 3.16994 14.4009 3.86513 14.4009H3.991C3.95543 14.1792 3.94931 13.948 3.98232 13.7123L4.4858 10.1109L3.03504 13.0192ZM20.0177 13.7123C20.0507 13.9481 20.0446 14.1792 20.009 14.4009H20.1349C20.8301 14.4009 21.2804 13.6513 20.965 13.0192L19.5131 10.1109L20.0177 13.7123Z" fill="#31333C"/>
<path d="M9.91818 13.4503C9.70961 13.4503 9.52338 13.3857 9.3595 13.2565C9.19562 13.1197 9.11368 12.9525 9.11368 12.7549V6.16549C9.11368 5.96789 9.177 5.80448 9.30363 5.67528C9.43771 5.53847 9.60159 5.47007 9.79527 5.47007H13.0133C13.4006 5.47007 13.7619 5.57647 14.0971 5.78928C14.4398 5.99449 14.7154 6.28329 14.924 6.65571C15.1325 7.02052 15.2368 7.44233 15.2368 7.92114C15.2368 8.20995 15.1772 8.49116 15.0581 8.76477C14.9463 9.03837 14.7899 9.28538 14.5888 9.50579C14.3951 9.72619 14.1753 9.8972 13.9295 10.0188L13.9407 9.75659C14.1493 9.8706 14.3206 10.0074 14.4547 10.167C14.5962 10.319 14.7042 10.4862 14.7787 10.6686C14.8607 10.8434 14.9091 11.0334 14.924 11.2386C14.9538 11.4286 14.9724 11.5958 14.9798 11.7402C14.9947 11.8847 15.0171 12.0063 15.0469 12.1051C15.0841 12.2039 15.1512 12.2799 15.248 12.3331C15.4119 12.4319 15.5124 12.5763 15.5497 12.7663C15.5944 12.9487 15.5534 13.1121 15.4268 13.2565C15.3448 13.3553 15.2406 13.4199 15.1139 13.4503C14.9873 13.4731 14.8607 13.4731 14.734 13.4503C14.6074 13.4199 14.5031 13.3819 14.4212 13.3363C14.2945 13.2603 14.1679 13.1501 14.0413 13.0057C13.9146 12.8537 13.8103 12.6523 13.7284 12.4015C13.6539 12.1507 13.6167 11.8277 13.6167 11.4324C13.6167 11.3032 13.5943 11.1854 13.5496 11.079C13.5049 10.965 13.4416 10.87 13.3597 10.794C13.2777 10.7104 13.1734 10.6496 13.0468 10.6116C12.9202 10.566 12.7712 10.5432 12.5999 10.5432H10.3428L10.5104 10.281V12.7549C10.5104 12.9525 10.4582 13.1197 10.354 13.2565C10.2497 13.3857 10.1044 13.4503 9.91818 13.4503ZM10.354 9.36898H12.9574C13.0915 9.36898 13.2219 9.30818 13.3485 9.18658C13.4751 9.05737 13.5794 8.88637 13.6613 8.67356C13.7433 8.45316 13.7843 8.21375 13.7843 7.95534C13.7843 7.62093 13.6949 7.34352 13.5161 7.12312C13.3448 6.89511 13.1585 6.78111 12.9574 6.78111H10.3763L10.5104 6.4163V9.64259L10.354 9.36898Z" fill="white"/>
</svg>
