<svg width="24" height="24" viewBox="0 0 24 24" fill="none" xmlns="http://www.w3.org/2000/svg">
<path fill-rule="evenodd" clip-rule="evenodd" d="M9 2C8.44772 2 8 2.44772 8 3V6V7V9C8 10.8638 9.27477 12.4299 11 12.874V21C11 21.5523 11.4477 22 12 22C12.5523 22 13 21.5523 13 21V12.874C14.7252 12.4299 16 10.8638 16 9V7V6V3C16 2.44772 15.5523 2 15 2C14.4477 2 14 2.44772 14 3V4.5V6V8.5C14 8.77614 13.7761 9 13.5 9C13.2239 9 13 8.77614 13 8.5V6V4.5V3C13 2.44772 12.5523 2 12 2C11.4477 2 11 2.44772 11 3V4.5V6V8.5C11 8.77614 10.7761 9 10.5 9C10.2239 9 10 8.77614 10 8.5V6V4.5V3C10 2.44772 9.55228 2 9 2Z" fill="#31333C"/>
</svg>
