<svg width="24" height="24" viewBox="0 0 24 24" fill="none" xmlns="http://www.w3.org/2000/svg">
<path fill-rule="evenodd" clip-rule="evenodd" d="M3 21C3 20.4477 3.44772 20 4 20H20C20.5523 20 21 20.4477 21 21C21 21.5523 20.5523 22 20 22H4C3.44772 22 3 21.5523 3 21Z" fill="#31333C"/>
<path fill-rule="evenodd" clip-rule="evenodd" d="M4.18313 4.7303C4.37813 4.54782 4.5 4.28814 4.5 4C4.5 3.44772 4.05228 3 3.5 3C2.94772 3 2.5 3.44772 2.5 4C2.5 4.49777 2.86369 4.9106 3.33984 4.98724V17C3.33984 18.1046 4.23528 19 5.33985 19H18.6602C19.7647 19 20.6602 18.1046 20.6602 17V4.98724C21.1363 4.9106 21.5 4.49777 21.5 4C21.5 3.44772 21.0523 3 20.5 3C19.9477 3 19.5 3.44772 19.5 4C19.5 4.28814 19.6219 4.54782 19.8169 4.7303L14.8868 8.99989L12.5002 4.86613C12.799 4.6932 13 4.37008 13 4C13 3.44772 12.5523 3 12 3C11.4477 3 11 3.44772 11 4C11 4.37014 11.2011 4.69331 11.5 4.86621L9.11335 9L4.18313 4.7303ZM12.8307 12.5566L12.2853 10.8781C12.1955 10.6017 11.8045 10.6017 11.7147 10.8781L11.1693 12.5566C11.1291 12.6802 11.0139 12.7639 10.884 12.7639H9.11908C8.82846 12.7639 8.70763 13.1358 8.94274 13.3066L10.3706 14.344C10.4757 14.4204 10.5197 14.5558 10.4796 14.6794L9.93418 16.358C9.84437 16.6343 10.1607 16.8642 10.3958 16.6934L11.8237 15.656C11.9288 15.5796 12.0712 15.5796 12.1763 15.656L13.6042 16.6934C13.8393 16.8642 14.1556 16.6343 14.0658 16.358L13.5204 14.6794C13.4803 14.5558 13.5243 14.4204 13.6294 14.344L15.0573 13.3066C15.2924 13.1358 15.1715 12.7639 14.8809 12.7639H13.116C12.9861 12.7639 12.8709 12.6802 12.8307 12.5566Z" fill="#31333C"/>
</svg>
