<svg width="24" height="24" viewBox="0 0 24 24" fill="none" xmlns="http://www.w3.org/2000/svg">
<path fill-rule="evenodd" clip-rule="evenodd" d="M14.7751 2.53972L5.77514 4.61664C5.32141 4.72135 5 5.12538 5 5.59103V6.00001C5 6.55229 5.44772 7.00001 6 7.00001H15C15.5523 7.00001 16 6.55229 16 6.00001V3.51411C16 2.87102 15.4018 2.39511 14.7751 2.53972ZM5.55028 3.64225C4.64282 3.85166 4 4.65972 4 5.59103V6.00001C4 7.10458 4.89543 8.00001 6 8.00001H15C16.1046 8.00001 17 7.10458 17 6.00001V3.51411C17 2.22794 15.8035 1.27612 14.5503 1.56533L5.55028 3.64225Z" fill="#31333C"/>
<path fill-rule="evenodd" clip-rule="evenodd" d="M6 4C4.89543 4 4 4.89543 4 6V20C4 21.1046 4.89543 22 6 22H18C19.1046 22 20 21.1046 20 20V6C20 4.89543 19.1046 4 18 4H6ZM6.5 17C6.22386 17 6 17.2239 6 17.5C6 17.7761 6.22386 18 6.5 18H17.5C17.7761 18 18 17.7761 18 17.5C18 17.2239 17.7761 17 17.5 17H6.5ZM11 8.5C11 8.22386 11.2239 8 11.5 8H12.5C12.7761 8 13 8.22386 13 8.5C13 8.77614 12.7761 9 12.5 9H11.5C11.2239 9 11 8.77614 11 8.5ZM12 10C9.23858 10 7 12.2386 7 15V15.3571C7 15.7122 7.28782 16 7.64286 16H16.3571C16.7122 16 17 15.7122 17 15.3571V15C17 12.2386 14.7614 10 12 10Z" fill="#31333C"/>
</svg>
