<svg width="24" height="24" viewBox="0 0 24 24" fill="none" xmlns="http://www.w3.org/2000/svg">
<path fill-rule="evenodd" clip-rule="evenodd" d="M2.40039 13.713C2.40039 8.082 3.01439 8.475 6.31939 5.41C7.76539 4.246 10.0154 2 11.9584 2C13.9004 2 16.1954 4.235 17.6544 5.41C20.9594 8.475 21.5724 8.082 21.5724 13.713C21.5724 22 19.6134 22 11.9864 22C4.35939 22 2.40039 22 2.40039 13.713Z" fill="#FEE0D2"/>
<path d="M11.958 1.25C13.1804 1.25 14.4072 1.936 15.4199 2.65137C16.1359 3.15713 16.8446 3.75425 17.4375 4.25391C17.6904 4.46704 17.9224 4.66303 18.125 4.82617C18.1385 4.83704 18.1514 4.84858 18.1641 4.86035C18.5701 5.23689 18.9358 5.56105 19.2676 5.85352C19.3125 5.89313 19.3574 5.93198 19.4014 5.9707C19.6792 6.21538 19.9375 6.44267 20.1699 6.65723C20.7092 7.15511 21.1631 7.63168 21.5039 8.22656C22.1842 9.41439 22.3223 10.9262 22.3223 13.7129C22.3223 15.8002 22.2006 17.4319 21.873 18.6924C21.5404 19.9724 20.981 20.9243 20.0771 21.5732C19.1971 22.205 18.0803 22.482 16.7783 22.6162C15.4837 22.7496 13.8995 22.75 12.0234 22.75H11.9492C10.0731 22.75 8.48894 22.7496 7.19434 22.6162C5.89233 22.482 4.7756 22.205 3.89551 21.5732C2.99169 20.9243 2.43223 19.9724 2.09961 18.6924C1.77209 17.4319 1.65039 15.8002 1.65039 13.7129C1.65039 10.9261 1.78908 9.41441 2.46973 8.22656C2.81061 7.63173 3.2644 7.15507 3.80371 6.65723C4.03582 6.44297 4.29384 6.21598 4.57129 5.97168C4.61554 5.93271 4.66083 5.89338 4.70605 5.85352C5.03786 5.56106 5.40357 5.23687 5.80957 4.86035C5.82225 4.84859 5.83517 4.83702 5.84863 4.82617C6.06069 4.65547 6.30863 4.44466 6.58008 4.21387C7.15406 3.72586 7.83556 3.14676 8.51562 2.65918C9.51585 1.94207 10.7323 1.25014 11.958 1.25ZM11.958 2.75C11.241 2.75015 10.3613 3.18129 9.38965 3.87793C8.75545 4.33262 8.17501 4.8267 7.62988 5.29102C7.3483 5.53086 7.07606 5.76317 6.81055 5.97754C6.39804 6.35963 6.02749 6.68831 5.69824 6.97852C5.6518 7.01945 5.60608 7.0594 5.56152 7.09863C5.28261 7.34424 5.03946 7.55837 4.82129 7.75977C4.31627 8.22595 3.99717 8.57802 3.77148 8.97168C3.31899 9.76127 3.15039 10.8689 3.15039 13.7129C3.15039 15.769 3.27366 17.2453 3.55176 18.3154C3.82471 19.3657 4.23155 19.9675 4.77051 20.3545C5.33351 20.7586 6.13738 20.9993 7.34766 21.124C8.55685 21.2487 10.0654 21.25 11.9863 21.25C13.9073 21.25 15.4158 21.2487 16.625 21.124C17.8353 20.9993 18.6391 20.7586 19.2021 20.3545C19.7411 19.9675 20.1479 19.3658 20.4209 18.3154C20.699 17.2453 20.8223 15.769 20.8223 13.7129C20.8223 10.8689 20.6545 9.7613 20.2021 8.97168C19.9766 8.57796 19.6573 8.22601 19.1523 7.75977C18.934 7.55819 18.6903 7.34355 18.4111 7.09766C18.3669 7.05872 18.3215 7.01912 18.2754 6.97852C17.9462 6.68832 17.5756 6.35963 17.1631 5.97754C16.9189 5.7804 16.6664 5.56675 16.4043 5.3457C15.8332 4.86396 15.218 4.34554 14.5547 3.87695C13.5698 3.18121 12.6775 2.75 11.958 2.75ZM14.8945 15.3857C15.3085 15.386 15.6445 15.7217 15.6445 16.1357C15.6445 16.5498 15.3085 16.8855 14.8945 16.8857H9.0791C8.66489 16.8857 8.3291 16.55 8.3291 16.1357C8.3291 15.7215 8.66489 15.3857 9.0791 15.3857H14.8945Z" fill="#ED2124"/>
</svg>
