<svg width="24" height="24" viewBox="0 0 24 24" fill="none" xmlns="http://www.w3.org/2000/svg">
<path fill-rule="evenodd" clip-rule="evenodd" d="M12 2C7.02944 2 3 6.10687 3 11.0774C3 14.1265 4.52387 17.0159 7.06088 18.7073L11.1844 21.4563C11.6783 21.7855 12.3217 21.7855 12.8156 21.4563L16.9391 18.7073C19.4761 17.0159 21 14.1265 21 11.0774C21 6.10687 16.9706 2 12 2ZM12 15C14.2091 15 16 13.2091 16 11C16 8.79086 14.2091 7 12 7C9.79086 7 8 8.79086 8 11C8 13.2091 9.79086 15 12 15Z" fill="#31333C"/>
</svg>
