<svg width="24" height="24" viewBox="0 0 24 24" fill="none" xmlns="http://www.w3.org/2000/svg">
<path d="M2 18.5C2 16.567 3.567 15 5.5 15C7.433 15 9 16.567 9 18.5C9 20.433 7.433 22 5.5 22C3.567 22 2 20.433 2 18.5Z" fill="#31333C"/>
<path d="M15 18.5C15 16.567 16.567 15 18.5 15C20.433 15 22 16.567 22 18.5C22 20.433 20.433 22 18.5 22C16.567 22 15 20.433 15 18.5Z" fill="#31333C"/>
<rect x="3" y="17" width="18" height="2" fill="#31333C"/>
<rect x="2" y="19" width="20" height="1" fill="white"/>
<path d="M16.3106 10.2425C16.1528 9.61139 16.6302 9 17.2808 9H17.307C17.7238 9 18.097 9.25857 18.2433 9.64888L20.4933 15.6489C20.7385 16.3026 20.2552 17 19.557 17H18.7808C18.3219 17 17.9219 16.6877 17.8106 16.2425L16.3106 10.2425Z" fill="#31333C"/>
<rect x="14" y="9" width="4" height="2" rx="1" fill="#31333C"/>
<circle cx="19.5" cy="12.5" r="1.5" fill="white"/>
<circle cx="19.5" cy="12.5" r="0.5" fill="#31333C"/>
<rect x="2" y="6" width="6" height="4" rx="1" fill="#31333C"/>
<path d="M2 12C2 11.4477 2.44772 11 3 11H8.6C9.92548 11 11 12.0745 11 13.4C11 13.7314 10.7314 14 10.4 14H4.23607C4.08082 14 3.92771 13.9639 3.78885 13.8944L2.55279 13.2764C2.214 13.107 2 12.7607 2 12.382V12Z" fill="#31333C"/>
<rect x="3" y="7" width="4" height="1" rx="0.5" fill="white"/>
</svg>
