<svg width="24" height="24" viewBox="0 0 24 24" fill="none" xmlns="http://www.w3.org/2000/svg">
<path d="M15 4H9C7.67392 4 6.40215 4.52678 5.46447 5.46447C4.52678 6.40215 4 7.67392 4 9L4 15C4 16.3261 4.52678 17.5979 5.46447 18.5355C6.40215 19.4732 7.67392 20 9 20H15C16.3261 20 17.5979 19.4732 18.5355 18.5355C19.4732 17.5979 20 16.3261 20 15V9C20 7.67392 19.4732 6.40215 18.5355 5.46447C17.5979 4.52678 16.3261 4 15 4ZM18.5 15C18.5 16.93 16.93 18.5 15 18.5H9C7.07 18.5 5.5 16.93 5.5 15V9C5.5 7.07 7.07 5.5 9 5.5H15C16.93 5.5 18.5 7.07 18.5 9V15Z" fill="url(#paint0_linear_594_7262)"/>
<path d="M12 8C10.9391 8 9.92172 8.42143 9.17157 9.17157C8.42143 9.92172 8 10.9391 8 12C8 13.0609 8.42143 14.0783 9.17157 14.8284C9.92172 15.5786 10.9391 16 12 16C13.0609 16 14.0783 15.5786 14.8284 14.8284C15.5786 14.0783 16 13.0609 16 12C16 10.9391 15.5786 9.92172 14.8284 9.17157C14.0783 8.42143 13.0609 8 12 8ZM12 14.5C11.3372 14.4992 10.7018 14.2356 10.2331 13.7669C9.76444 13.2982 9.50079 12.6628 9.5 12C9.5 10.621 10.622 9.5 12 9.5C13.378 9.5 14.5 10.621 14.5 12C14.5 13.378 13.378 14.5 12 14.5Z" fill="url(#paint1_linear_594_7262)"/>
<path d="M16.3001 8.23299C16.5945 8.23299 16.8331 7.99436 16.8331 7.69999C16.8331 7.40562 16.5945 7.16699 16.3001 7.16699C16.0057 7.16699 15.7671 7.40562 15.7671 7.69999C15.7671 7.99436 16.0057 8.23299 16.3001 8.23299Z" fill="url(#paint2_linear_594_7262)"/>
<defs>
<linearGradient id="paint0_linear_594_7262" x1="5.464" y1="18.536" x2="18.536" y2="5.464" gradientUnits="userSpaceOnUse">
<stop stop-color="#FFC107"/>
<stop offset="0.507" stop-color="#F44336"/>
<stop offset="0.99" stop-color="#9C27B0"/>
</linearGradient>
<linearGradient id="paint1_linear_594_7262" x1="9.172" y1="14.828" x2="14.828" y2="9.172" gradientUnits="userSpaceOnUse">
<stop stop-color="#FFC107"/>
<stop offset="0.507" stop-color="#F44336"/>
<stop offset="0.99" stop-color="#9C27B0"/>
</linearGradient>
<linearGradient id="paint2_linear_594_7262" x1="15.9231" y1="8.07699" x2="16.6771" y2="7.32299" gradientUnits="userSpaceOnUse">
<stop stop-color="#FFC107"/>
<stop offset="0.507" stop-color="#F44336"/>
<stop offset="0.99" stop-color="#9C27B0"/>
</linearGradient>
</defs>
</svg>
