<svg width="24" height="24" viewBox="0 0 24 24" fill="none" xmlns="http://www.w3.org/2000/svg">
<path fill-rule="evenodd" clip-rule="evenodd" d="M6 3C3.79086 3 2 4.79086 2 7V17C2 19.2091 3.79086 21 6 21H18C20.2091 21 22 19.2091 22 17V7C22 4.79086 20.2091 3 18 3H6ZM19.5814 7.81369C20.0308 7.49268 20.1349 6.86812 19.8139 6.41871C19.4929 5.9693 18.8683 5.86521 18.4189 6.18622L12.0002 10.7711L5.58132 6.18623C5.1319 5.86522 4.50735 5.96931 4.18634 6.41873C3.86534 6.86814 3.96943 7.49269 4.41884 7.8137L11.4189 12.8137C11.7666 13.0621 12.2337 13.0621 12.5814 12.8137L19.5814 7.81369Z" fill="#31333C"/>
</svg>
