<svg width="24" height="24" viewBox="0 0 24 24" fill="none" xmlns="http://www.w3.org/2000/svg">
<path fill-rule="evenodd" clip-rule="evenodd" d="M11 2C10.4477 2 10 2.44772 10 3V4.56874C10 4.99657 9.71287 5.36825 9.31774 5.5323C8.92247 5.69641 8.46223 5.63387 8.1596 5.33124L7.05018 4.22182C6.65966 3.8313 6.02649 3.8313 5.63597 4.22182L4.22176 5.63603C3.83123 6.02656 3.83123 6.65972 4.22176 7.05025L5.33123 8.15972C5.63384 8.46233 5.69638 8.92253 5.53228 9.31778C5.36825 9.71288 4.99659 10 4.56879 10H3C2.44772 10 2 10.4477 2 11V13C2 13.5523 2.44772 14 3 14H4.56882C4.9966 14 5.36824 14.2871 5.53227 14.6822C5.69636 15.0774 5.63382 15.5376 5.33122 15.8402L4.22165 16.9497C3.83113 17.3403 3.83113 17.9734 4.22165 18.364L5.63587 19.7782C6.02639 20.1687 6.65955 20.1687 7.05008 19.7782L8.15949 18.6688C8.46214 18.3661 8.92241 18.3036 9.31771 18.4677C9.71285 18.6317 10 19.0034 10 19.4313V21C10 21.5523 10.4477 22 11 22H13C13.5523 22 14 21.5523 14 21V19.4312C14 19.0034 14.2871 18.6318 14.6822 18.4677C15.0775 18.3036 15.5377 18.3662 15.8403 18.6688L16.9497 19.7782C17.3402 20.1687 17.9734 20.1687 18.3639 19.7782L19.7781 18.364C20.1686 17.9734 20.1686 17.3403 19.7781 16.9497L18.6688 15.8404C18.3661 15.5378 18.3036 15.0775 18.4677 14.6823C18.6317 14.2871 19.0034 14 19.4313 14H21C21.5523 14 22 13.5523 22 13V11C22 10.4477 21.5523 10 21 10H19.4313C19.0034 10 18.6317 9.71285 18.4677 9.31771C18.3036 8.92241 18.3661 8.46214 18.6688 8.15949L19.778 7.05025C20.1685 6.65972 20.1685 6.02656 19.778 5.63603L18.3638 4.22182C17.9733 3.8313 17.3401 3.8313 16.9496 4.22182L15.8402 5.33122C15.5376 5.63382 15.0774 5.69636 14.6822 5.53227C14.2871 5.36824 14 4.9966 14 4.56882V3C14 2.44772 13.5523 2 13 2H11ZM12 15C13.6569 15 15 13.6569 15 12C15 10.3431 13.6569 9 12 9C10.3431 9 9 10.3431 9 12C9 13.6569 10.3431 15 12 15Z" fill="#31333C"/>
</svg>
