<svg width="24" height="24" viewBox="0 0 24 24" fill="none" xmlns="http://www.w3.org/2000/svg">
<path d="M20 7.53899C19.3981 7.80149 18.7616 7.97595 18.11 8.05699C18.7967 7.64962 19.3101 7.00455 19.553 6.24399C18.91 6.62533 18.2065 6.89387 17.473 7.03799C17.0232 6.55777 16.4395 6.22391 15.7975 6.07978C15.1555 5.93566 14.485 5.98793 13.8732 6.22981C13.2613 6.47169 12.7363 6.892 12.3664 7.43613C11.9965 7.98025 11.7988 8.62304 11.799 9.28099C11.799 9.54099 11.821 9.79099 11.875 10.029C10.5701 9.96501 9.29336 9.62634 8.1283 9.03511C6.96325 8.44388 5.93609 7.61341 5.114 6.59799C4.69282 7.31985 4.56261 8.1751 4.74988 8.98959C4.93716 9.80409 5.42783 10.5166 6.122 10.982C5.60276 10.9681 5.09447 10.8295 4.64 10.578V10.614C4.64087 11.3714 4.90267 12.1054 5.38132 12.6924C5.85997 13.2795 6.52625 13.6837 7.268 13.837C6.98739 13.9109 6.69819 13.9473 6.408 13.945C6.19959 13.9487 5.99139 13.9299 5.787 13.889C5.99894 14.54 6.40749 15.1093 6.95639 15.5185C7.5053 15.9278 8.16756 16.1568 8.852 16.174C7.69094 17.082 6.25897 17.5746 4.785 17.573C4.516 17.573 4.258 17.561 4 17.528C5.49988 18.4945 7.24768 19.0058 9.032 19C15.068 19 18.368 14 18.368 9.66599C18.368 9.52099 18.363 9.38099 18.356 9.24199C19.003 8.77898 19.5601 8.20187 20 7.53899Z" fill="#03A9F4"/>
</svg>
