<svg width="24" height="24" viewBox="0 0 24 24" fill="none" xmlns="http://www.w3.org/2000/svg">
<path fill-rule="evenodd" clip-rule="evenodd" d="M15.6012 19.8254L21.2911 3.9749C21.5755 3.18282 20.8139 2.41516 20.0196 2.69318L4.17413 8.23909C3.34853 8.52805 3.26563 9.66291 4.04047 10.0688L6.73625 11.4809C7.05401 11.6473 7.25828 11.9712 7.27155 12.3297L7.39275 15.602C7.42574 16.4926 8.58637 16.8102 9.06829 16.0606C9.40396 15.5384 10.1523 15.498 10.5423 15.9808L13.8821 20.1158C14.3723 20.7227 15.3377 20.5596 15.6012 19.8254ZM9.00009 11.1153V14.3759C9.00009 14.5705 9.24974 14.6505 9.36283 14.4922L11.486 11.5198C11.4953 11.5066 11.5063 11.4947 11.5185 11.4842L16.8527 6.91209C17.0373 6.7538 16.8328 6.46529 16.6223 6.58715L9.09988 10.9422C9.03812 10.978 9.00009 11.044 9.00009 11.1153Z" fill="#31333C"/>
</svg>
