<svg width="24" height="24" viewBox="0 0 24 24" fill="none" xmlns="http://www.w3.org/2000/svg">
<path d="M12 3C14.7614 3 17 5.23858 17 8V12H7V8C7 5.23858 9.23858 3 12 3Z" stroke="#31333C" stroke-width="2"/>
<path fill-rule="evenodd" clip-rule="evenodd" d="M7 10C4.79086 10 3 11.7909 3 14V18C3 20.2091 4.79086 22 7 22H17C19.2091 22 21 20.2091 21 18V14C21 11.7909 19.2091 10 17 10H7ZM12 18C13.1046 18 14 17.1046 14 16C14 14.8954 13.1046 14 12 14C10.8954 14 10 14.8954 10 16C10 17.1046 10.8954 18 12 18Z" fill="#31333C"/>
</svg>
